<?xml version="1.0" encoding="utf-8"?>
<!-- Generator: Adobe Illustrator 24.0.1, SVG Export Plug-In . SVG Version: 6.00 Build 0)  -->
<svg version="1.1" xmlns="http://www.w3.org/2000/svg" xmlns:xlink="http://www.w3.org/1999/xlink" x="0px" y="0px"
	 viewBox="0 0 52 52" style="enable-background:new 0 0 52 52;" xml:space="preserve">
<style type="text/css">
	.st0{fill:none;stroke:#25477B;stroke-width:1.25;stroke-linecap:round;stroke-linejoin:round;stroke-miterlimit:10;}
	.st1{fill:none;stroke:#0078D3;stroke-width:1.25;stroke-linecap:round;stroke-linejoin:round;stroke-miterlimit:10;}

	.st0{fill:none;stroke:#25477B;stroke-width:1.25;stroke-linecap:round;stroke-linejoin:round;stroke-miterlimit:10;}
	.st1{fill:none;stroke:#0078D3;stroke-width:1.25;stroke-linecap:round;stroke-linejoin:round;stroke-miterlimit:10;}
	
	
	.arrow {
		opacity: 1;
		animation: arrow 1s linear normal 1 forwards;
	}
	@keyframes arrow {
    	0% {transform: translatey(0px);}
    	100% {transform: translatey(30px);}
	}

	
	.verticalline {
		stroke-dasharray: 50;
		stroke-dashoffset: 50;
		animation: verticalline 1.7s .1s linear forwards;
	}
	
	@keyframes verticalline {
		from {stroke-dashoffset: 50;
		}
		to {
		stroke-dashoffset: 0;
		}
	}	
	
	
	
	.money {
		stroke-dasharray: 50;
		stroke-dashoffset: 50;
		animation: money .8s 1.15s linear forwards;
	}
	
	@keyframes money {
		from {stroke-dashoffset: 50;
		}
		to {
		stroke-dashoffset: 0;
		}
	}	

</style>
<g id="truck">
	<g>
		<g>
			<path class="st0" d="M46.1,18.6l-1.2-3.4c-0.4-1.1-1.5-1.9-2.7-1.9H24c-1.2,0-2.3,0.8-2.7,1.9L20,18.6c-0.2,0.8-0.4,1.7-0.4,2.5
				h26.9C46.5,20.2,46.3,19.4,46.1,18.6z"/>
			<path class="st0" d="M46.6,29.1v-6.9c0-0.4,0-0.8-0.1-1.1H19.6c0,0.4-0.1,0.8-0.1,1.1v6.9c1.6,0.4,6.1,1.4,13.5,1.4
				C40.5,30.5,45,29.5,46.6,29.1z"/>
		</g>
		<g>
			<g>
				<line class="st0" x1="48.5" y1="24.7" x2="46.6" y2="24.7"/>
			</g>
			<path class="st0" d="M49.2,28.8c-0.3,0.2-0.7-0.1-0.7-0.5v-6.3c0-0.3,0.2-0.5,0.5-0.5h0.8c0.7,0,1.2,0.5,1.2,1.2v4
				c0,0.7-0.4,1.4-1.1,1.7L49.2,28.8z"/>
		</g>
		<g>
			<g>
				<line class="st0" x1="17.6" y1="24.7" x2="19.5" y2="24.7"/>
			</g>
			<path class="st0" d="M16.9,28.8c0.3,0.2,0.7-0.1,0.7-0.5v-6.3c0-0.3-0.2-0.5-0.5-0.5h-0.8c-0.7,0-1.2,0.5-1.2,1.2v4
				c0,0.7,0.4,1.4,1.1,1.7L16.9,28.8z"/>
		</g>
		<path class="st0" d="M47.6,38.2l-0.2-0.3c-0.5-0.7-0.8-1.5-0.8-2.4v-6.4c-1.6,0.4-6.1,1.4-13.5,1.4c-7.5,0-12-1-13.5-1.4v6.4
			c0,0.9-0.3,1.7-0.8,2.4l-0.2,0.3c-0.5,0.7-0.8,1.5-0.8,2.4v7.1c0,0.7,0.5,1.2,1.2,1.2h1.5V50c0,0.6,0.5,1,1,1h3.4c0.6,0,1-0.5,1-1
			v-1.1h14.5V50c0,0.6,0.5,1,1,1h3.4c0.6,0,1-0.5,1-1v-1.1h1.5c0.7,0,1.2-0.5,1.2-1.2v-7.1C48.4,39.7,48.1,38.9,47.6,38.2z
			 M24.4,45.5c-4.3-0.2-4.8-2-4.8-2.4c0,0,0-0.1,0-0.1V42c0-0.4,0.3-0.7,0.7-0.7h2.4c0.8,0,1.5,0.5,1.8,1.3l0.6,2
			C25.3,45.1,24.9,45.6,24.4,45.5z M40.2,37.3l-2,8.3c-0.1,0.5-0.6,0.9-1.1,0.9h-8.2c-0.5,0-1-0.4-1.1-0.9l-1.9-8.3
			c-0.1-0.5,0.2-0.9,0.7-0.9h12.9C40,36.4,40.3,36.8,40.2,37.3z M46.5,43.1c0,0,0,0.1,0,0.1c-0.1,0.3-0.6,2.1-4.8,2.4
			c-0.5,0-0.9-0.5-0.7-0.9l0.6-2c0.2-0.8,1-1.3,1.8-1.3h2.4c0.4,0,0.7,0.3,0.7,0.7V43.1z"/>
	</g>
</g>
<g id="arrow_1_" class="arrow">
	<polyline class="st1" points="10.6,-5.4 6.9,-1.8 3.2,-5.4 	"/>
</g>
<g id="verticalline" class="verticalline">
	<line class="st1" x1="6.9" y1="1" x2="6.9" y2="28.2"/>
</g>
<g id="money" class="money">
	<g>
		<g>
			<g>
				<path class="st1" d="M12.7,8.2c0-2.5-2.6-4.5-5.9-4.5S1,5.7,1,8.2s2.6,4.5,5.9,4.5s5.9,2,5.9,4.5s-2.6,4.5-5.9,4.5
					S1,19.9,1,17.3"/>
			</g>
		</g>
	</g>
</g>
</svg>
