<svg xmlns="http://www.w3.org/2000/svg" viewBox="0 0 52 52">
<style type="text/css">
	.wave1 {
		opacity: 0;
		animation: fade 0.75s 0.75s linear normal 1 forwards;
	}
	.wave2 {
		opacity: 0;
		animation: fade 0.75s 1s linear normal 1 forwards;
	}
	.wave3 {
		opacity: 0;
		animation: fade 0.75s 1.25s linear normal 1 forwards;
	}			
	.car {
		opacity: 0;
		animation: fade 0.75s 0s linear normal 1 forwards;
	}	
	@keyframes fade {
    	0% {opacity:0}
		100% {opacity:1}
	}		
</style>		
  <g id="car" class="car">
    <g>
      <path d="M36.83594,50.85059a1.96927,1.96927,0,0,1-1.9668-1.96778v-1.832H17.13232v1.832a1.96958,1.96958,0,0,1-1.96679,1.96778H10.249a1.968,1.968,0,0,1-1.96386-1.96778V37.35547a6.21971,6.21971,0,0,1,.25341-1.65039l.01856-.05078H7.9165a1.51674,1.51674,0,0,1-1.26123-.60742,1.622,1.622,0,0,1-.16211-1.48536l.43262-1.26269a2.58707,2.58707,0,0,1,2.293-1.68945h1.09131c1.63769-4.65381,2.61084-7.28809,2.894-7.8335.86768-1.65234,2.93652-2.34229,4.30567-2.79834.05761-.02246,2.06982-.76123,8.49072-.76123,6.42139,0,8.436.73828,8.519.77,1.43262.396,3.49414,1.13428,4.22559,2.75683.416.92969,1.77929,4.70118,2.90722,7.86719H42.7832a2.58518,2.58518,0,0,1,2.292,1.6875l.43359,1.26465a1.62368,1.62368,0,0,1-.166,1.48535,1.51633,1.51633,0,0,1-1.26074.60645h-.64258l.01856.05371a6.13107,6.13107,0,0,1,.25586,1.64258V48.88281A1.968,1.968,0,0,1,41.75,50.85059Z" fill="#fff"/>
      <path d="M26.00067,19.84131c6.38007,0,8.29639.72888,8.29639.72888,1.14343.31836,3.22394.97644,3.87768,2.42969.419.93554,1.85968,4.92688,3.03717,8.23572h1.571A1.94954,1.94954,0,0,1,44.484,32.50085l.43317,1.26368a.87428.87428,0,0,1-.83509,1.26526h-1.5199c.1952.57043.3169.91577.3169.91577a5.29934,5.29934,0,0,1,.20959,1.40527V48.88257a1.34417,1.34417,0,0,1-1.339,1.34289H36.836a1.34287,1.34287,0,0,1-1.34174-1.34289v-2.457H16.5072v2.457a1.34287,1.34287,0,0,1-1.34173,1.34289H10.24884A1.34214,1.34214,0,0,1,8.91,48.88257V37.355a5.42663,5.42663,0,0,1,.20667-1.40942s.12451-.34534.317-.91577H7.91644a.872.872,0,0,1-.83215-1.26526l.433-1.26368a1.95573,1.95573,0,0,1,1.70124-1.2666h1.53412c1.19451-3.39966,2.66064-7.50525,3.006-8.17053.74158-1.41235,2.60687-2.04639,3.94855-2.49353,0,0,1.91345-.72888,8.29339-.72888m0-1.25c-6.17432,0-8.35071.67224-8.70422.79822-1.46417.48791-3.66449,1.22668-4.64447,3.09314-.12323.2373-.4361.84-2.78455,7.50158H9.21857A3.20152,3.20152,0,0,0,6.33539,32.094l-.4336,1.26526A2.2375,2.2375,0,0,0,6.147,35.41064a2.11034,2.11034,0,0,0,1.60663.86377A8.71448,8.71448,0,0,0,7.66,37.355V48.88257a2.5938,2.5938,0,0,0,2.58881,2.59289h4.91663a2.59528,2.59528,0,0,0,2.59173-2.59289v-1.207H34.24426v1.207A2.59528,2.59528,0,0,0,36.836,51.47546h4.91369a2.59391,2.59391,0,0,0,2.589-2.59289V37.35083a8.56707,8.56707,0,0,0-.09472-1.07629,2.11281,2.11281,0,0,0,1.60614-.86145,2.24051,2.24051,0,0,0,.2511-2.04944l-.43476-1.26807a3.1978,3.1978,0,0,0-2.88354-2.11h-.68946c-1.09985-3.08155-2.3703-6.58655-2.77789-7.49671-.83166-1.84875-3.03772-2.6615-4.64337-3.11181-.44745-.15186-2.675-.78577-8.67151-.78577Z" fill="#23487b"/>
    </g>
    <path d="M18.46021,39.64771c.00561.80834-.45,1.18041-1.98145,1.18041H14.4436c-1.81714,0-3.6344-.2434-3.6344-1.39819V38.02881c0-1.35034.787-1.397,1.63044-1.397a12.22471,12.22471,0,0,1,3.53814,1.18164C17.14966,38.33862,18.46021,38.77454,18.46021,39.64771Zm19.239-10.17627c-.7829-2.60694-1.56378-4.42261-1.80017-5.124l-.00281-.006-.0025-.00647-.00812-.02-.01385-.02881c-.00635-.0122-.01441-.02588-.0243-.04126-.23486-.36584-1.59375-1.58886-9.8468-1.58886a41.30782,41.30782,0,0,0-7.29437.47607c-2.49194.471-2.61353,1.16357-2.73126,1.46143-.0752.20581-.233.57605-.445,1.11438-.08478.21545-.17822.45764-.2785.72705-.06788.18237-.13977.38171-.21332.589-.1814.511-.37787,1.0979-.582,1.76245q-.14584.4746-.29535,1.00195c-.17035.60168-.34265,1.251-.51258,1.95654,0,0,4.10144,1.38575,12.35236,1.38575h.00006c8.24536,0,12.32135-1.38843,12.32135-1.38843C38.12134,30.93066,37.91022,30.17383,37.69922,29.47144Zm3.48736,9.95849V38.02881c0-1.35034-.78131-1.397-1.63043-1.397a12.26865,12.26865,0,0,0-3.5354,1.18042c-1.17181.52221-2.48511.95959-2.48511,1.83545,0,.80834.45563,1.18041,1.98414,1.18041H37.552c1.82013,0,3.64295-.2434,3.64295-1.39819Z" fill="#fff" stroke="#23487b" stroke-miterlimit="10" stroke-width="1.25"/>
  </g>
  <g id="wave_1" data-name="wave 1" class="wave1">
    <path d="M16.61288,16.28165a13.25439,13.25439,0,0,1,18.74454,0" fill="none" stroke="#0078d3" stroke-linecap="round" stroke-linejoin="round" stroke-width="1.25"/>
  </g>
  <g id="wave_2" data-name="wave 2" class="wave2">
    <path d="M12.32614,12.49462a19.31685,19.31685,0,0,1,27.31807.00025" fill="none" stroke="#0078d3" stroke-linecap="round" stroke-linejoin="round" stroke-width="1.25"/>
  </g>
  <g id="wave_3" data-name="wave 3" class="wave3">
    <path d="M8.03939,8.7076a25.37929,25.37929,0,0,1,35.8916.00049" fill="none" stroke="#0078d3" stroke-linecap="round" stroke-linejoin="round" stroke-width="1.25"/>
  </g>
</svg>