<svg xmlns="http://www.w3.org/2000/svg" viewBox="0 0 52 52">
<style type="text/css">
	.tracing1 {
		stroke-dasharray: 200;
		stroke-dashoffset: 200;
		animation: tracing 1.2s 0.75s ease-in-out forwards;
	}
	.tracing2 {
		stroke-dasharray: 200;
		stroke-dashoffset: 200;
		animation: tracing 1.2s 0.95s ease-in-out forwards;
	}
	.tracing3 {
		stroke-dasharray: 200;
		stroke-dashoffset: 200;
		animation: tracing 1.5s 1.25s ease-in-out forwards;
	}		
	@keyframes tracing {
		from {
			stroke-dashoffset: 200;
		}
		to {
			stroke-dashoffset: 0;
		}
	}	
</style>		
  <g id="shield-outer-right" class="tracing1">
    <path d="M24.43,49.93C36.9,47.23,46.13,37.55,46.13,26V3H24.43" fill="#fff" stroke="#25477b" stroke-linecap="round" stroke-linejoin="round" stroke-width="1.25"/>
  </g>
  <g id="shield-outer-left" class="tracing1">
    <path d="M24.43,49.93C12,47.23,2.73,37.55,2.73,26V3h21.7" fill="#fff" stroke="#25477b" stroke-linecap="round" stroke-linejoin="round" stroke-width="1.25"/>
  </g>
  <g id="shield-inner-right" class="tracing2">
    <path d="M24.43,45.59C34.77,43,41.91,35.06,41.91,26V7.22H24.43" fill="#fff" stroke="#25477b" stroke-linecap="round" stroke-linejoin="round" stroke-width="1.25"/>
  </g>
  <g id="shield-inner-left" class="tracing2">
    <path d="M24.43,45.59C14.09,43,7,35.06,7,26V7.22H24.43" fill="#fff" stroke="#25477b" stroke-linecap="round" stroke-linejoin="round" stroke-width="1.25"/>
  </g>
  <g id="checkmark" class="tracing3">
    <path d="M32.21,13.06,20.71,27.65,16,23.91a1.34,1.34,0,0,0-1.9.22l-1.72,2.18a1.35,1.35,0,0,0,.23,1.9l8,6.3a1.36,1.36,0,0,0,1.91-.22L36.52,16.45a1.35,1.35,0,0,0-.23-1.9l-2.18-1.72A1.35,1.35,0,0,0,32.21,13.06Z" fill="#fff" stroke="#0078d3" stroke-linecap="round" stroke-linejoin="round" stroke-width="1.25"/>
  </g>
</svg>