<svg xmlns="http://www.w3.org/2000/svg" viewBox="0 0 52 52">
<style type="text/css">
	@keyframes fade {
    	0% {opacity:0}
		100% {opacity:1}
	}
	.car {
		opacity: 0;
		animation: fade .75s 0s linear normal 1 forwards;
	}	

	@keyframes plug {
    	0% {
			opacity: 0;        	
    	}
		20% {
        	transform:rotate(0deg);			
			opacity: 1;        	
		}    	
		100% {
        	transform:rotate(310deg);
			opacity: 1;        	
		}
	}
	.plug {
		animation: plug 1.5s .6s ease normal 1 forwards;
		opacity: 0;
		transform-origin: 50% 50%;
	}	
	
	@keyframes chord {
		0% {			
		}
		20% {
		stroke-dashoffset: 120;						
		}		
		100% {
		stroke-dashoffset: 0;
		}
	}
	.chord {
		stroke-dasharray: 120;
		stroke-dashoffset: 120;
		animation: chord 1.5s 0.6s ease forwards;
	}	

</style>	
  <g id="car" class="car">
    <path d="M12.6349,21.27045c.10327.01922.08573.01938.19.03563" fill="none" stroke="#0078d3" stroke-linecap="round" stroke-linejoin="round" stroke-width="1.25"/>
    <g>
      <path d="M34.75391,37.25a1.70857,1.70857,0,0,1-1.70606-1.707V34.18848H18.999V35.543A1.70825,1.70825,0,0,1,17.293,37.25H13.33154a1.70711,1.70711,0,0,1-1.70361-1.707v-9.2876a5.88213,5.88213,0,0,1,.167-1.24853h-.34277a1.34185,1.34185,0,0,1-1.11475-.54,1.42673,1.42673,0,0,1-.147-1.30713l.34912-1.01807a2.2118,2.2118,0,0,1,1.96191-1.44287h.793c1.96485-5.58057,2.22412-6.07959,2.31055-6.24658.72168-1.375,2.4165-1.93994,3.53809-2.31348.04248-.01709,1.68457-.61963,6.87988-.61963,5.1958,0,6.84033.60254,6.90771.62842,1.167.32227,2.86231.93115,3.47168,2.28516.26954.60254,1.04883,2.71,2.31739,6.26709h.82519a2.1797,2.1797,0,0,1,1.96192,1.4414l.34863,1.01856a1.43007,1.43007,0,0,1-.14942,1.30859,1.34423,1.34423,0,0,1-1.11425.53858h-.34375a5.64358,5.64358,0,0,1,.168,1.24511v9.291a1.7067,1.7067,0,0,1-1.70313,1.707Z" fill="#fff"/>
      <path d="M26.02319,12.144c5.14063,0,6.68463.58728,6.68463.58728.92127.25647,2.5976.78675,3.12439,1.95777.33759.75366,1.49836,3.9696,2.44709,6.63562h1.2658a1.57084,1.57084,0,0,1,1.37061,1.01941l.349,1.01831a.70439.70439,0,0,1-.67279,1.01941H39.36725c.15729.45959.25537.73779.25537.73779A4.27162,4.27162,0,0,1,39.7915,26.252v9.29138a1.08308,1.08308,0,0,1-1.07885,1.082H34.75348a1.082,1.082,0,0,1-1.08106-1.082V33.56372H18.374v1.97961a1.082,1.082,0,0,1-1.08105,1.082H13.33154a1.08145,1.08145,0,0,1-1.07873-1.082V26.25525a4.37653,4.37653,0,0,1,.1665-1.13562s.10034-.2782.25537-.73779H11.45227a.70265.70265,0,0,1-.67053-1.01941l.34894-1.01831a1.57591,1.57591,0,0,1,1.37072-1.02051h1.23609c.96246-2.73914,2.14374-6.04712,2.42206-6.58313.59747-1.13794,2.1004-1.64881,3.18145-2.00916,0,0,1.54169-.58728,6.68219-.58728m0-1.25c-4.96081,0-6.76727.54248-7.08868.65515-1.21668.40564-3.04651,1.01954-3.88171,2.61023-.10071.194-.35407.68189-2.20038,5.91419h-.351a2.8323,2.8323,0,0,0-2.55261,1.86352l-.34955,1.02015a2.0421,2.0421,0,0,0,.2298,1.87255,1.91225,1.91225,0,0,0,1.21893.7649c-.04168.36181-.04516.65466-.04516.66052v9.28808a2.333,2.333,0,0,0,2.32873,2.332H17.293a2.33419,2.33419,0,0,0,2.33105-2.332v-.72961h12.7984v.72961a2.3342,2.3342,0,0,0,2.33106,2.332h3.95917a2.33309,2.33309,0,0,0,2.32885-2.332V26.252c0-.00586-.00225-.29638-.04406-.65747a1.914,1.914,0,0,0,1.21637-.76245,2.04464,2.04464,0,0,0,.23486-1.8706l-.35046-1.02259a2.82928,2.82928,0,0,0-2.55311-1.86413h-.38433c-1.184-3.31543-1.91931-5.29737-2.18775-5.89661-.71142-1.58142-2.55353-2.26489-3.894-2.641-.40369-.13428-2.251-.64307-7.05579-.64307Z" fill="#23487b"/>
    </g>
    <path d="M18.35114,29.05368H16.71138c-1.46415,0-2.92833-.19615-2.92833-1.12651v-1.129c0-1.08788.63405-1.12552,1.31365-1.12552a9.84963,9.84963,0,0,1,2.8508.95209c.94418.42314,2.00013.77433,2.00013,1.47786C19.95216,28.7539,19.58508,29.05368,18.35114,29.05368Z" fill="#fff" stroke="#23487b" stroke-miterlimit="10" stroke-width="1.25"/>
    <path d="M35.44905,19.90319c-.63082-2.10039-1.26-3.56339-1.45046-4.12845L33.99632,15.77l-.002-.00533-.00658-.0161-.01117-.02324c-.0051-.00975-.01156-.02086-.01956-.03311C33.76781,15.39742,32.673,14.412,26.0232,14.412a33.305,33.305,0,0,0-5.87726.38343c-2.00783.37958-2.10578.93762-2.20068,1.17763-.06054.16587-.18775.46405-.35855.89782-.0683.17369-.14359.36881-.22442.58592-.05465.14694-.11258.30748-.17182.47448-.1462.41167-.30447.88467-.469,1.42q-.11751.38263-.238.80734c-.13725.48479-.27607,1.008-.413,1.57649,0,0,3.30466,1.1164,9.95259,1.1164h.00006c6.64351,0,9.92765-1.11856,9.92765-1.11856C35.78912,21.079,35.61906,20.46916,35.44905,19.90319Z" fill="#fff" stroke="#23487b" stroke-miterlimit="10" stroke-width="1.25"/>
    <path d="M35.33043,29.05368H33.693c-1.23155,0-1.5987-.29978-1.5987-.95109,0-.70568,1.05816-1.058,2.00235-1.47886a9.88475,9.88475,0,0,1,2.84858-.95109c.68413,0,1.31365.03764,1.31365,1.12552v1.129h.00676C38.26565,28.85753,36.797,29.05368,35.33043,29.05368Z" fill="#fff" stroke="#23487b" stroke-miterlimit="10" stroke-width="1.25"/>
  </g>
  <g id="chord" class="chord">
    <path d="M41.32239,10.70019A21.63721,21.63721,0,1,1,26.02258,4.3628" fill="none" stroke="#0078d3" stroke-linecap="round" stroke-linejoin="round" stroke-width="1.25"/>
  </g>
  <g id="plug" class="plug">
    <g>
      <path d="M41.64546,8.23973h4.15313a0,0,0,0,1,0,0v6.977a0,0,0,0,1,0,0H41.64546a3.48851,3.48851,0,0,1-3.48851-3.48851v0a3.48851,3.48851,0,0,1,3.48851-3.48851Z" transform="translate(23.97933 -27.96736) rotate(50)" fill="#fff" stroke="#0078d3" stroke-miterlimit="10" stroke-width="1.25"/>
      <polyline points="45.531 18.722 43.075 15.795 45.793 13.515 48.249 16.442" fill="none" stroke="#0078d3" stroke-linecap="round" stroke-linejoin="round" stroke-width="1.25"/>
    </g>
  </g>
</svg>