<?xml version="1.0" encoding="utf-8"?>
<!-- Generator: Adobe Illustrator 23.0.4, SVG Export Plug-In . SVG Version: 6.00 Build 0)  -->
<svg version="1.1" xmlns="http://www.w3.org/2000/svg" xmlns:xlink="http://www.w3.org/1999/xlink" x="0px" y="0px"
	 viewBox="0 0 52 52" style="enable-background:new 0 0 52 52;" xml:space="preserve">
<style type="text/css">
	.st0{fill:#FFFFFF;stroke:#25477B;stroke-width:1.25;stroke-miterlimit:10;}
	.st1{fill:#25477B;}
	.st2{fill:none;stroke:#0078D3;stroke-width:1.25;stroke-linecap:round;stroke-linejoin:round;stroke-miterlimit:10;}
	
	.line1 {
		opacity: 0;
		animation: line1 2s .5s linear normal 1 forwards;
	}
	
	@keyframes line1 {
    	0% {opacity:0}
		5% {opacity:.167}
		10% {opacity:.334}
		15% {opacity:.50}
		20% {opacity:.667}
		25% {opacity:.833}
		30% {opacity:1}
		35% {opacity:1}
		40% {opacity:1}
		45% {opacity:.5}
		50% {opacity:0}
		55% {opacity:0}
		60% {opacity:.167}
		65% {opacity:.334}
		70% {opacity:.50}
		75% {opacity:.667}
		80% {opacity:.833}
		85% {opacity:1}
		90% {opacity:1}
		95% {opacity:1}
		100% {opacity:1}
	}
	
	.line2 {
		opacity: 0;
		animation: line2 2s .5s linear normal 1 forwards;
	}
	
	@keyframes line2 {
    	0% {opacity:0}
		5% {opacity:0}
		10% {opacity:.167}
		15% {opacity:.334}
		20% {opacity:.50}
		25% {opacity:.667}
		30% {opacity:.833}
		35% {opacity:1}
		40% {opacity:1}
		45% {opacity:.5}
		50% {opacity:0}
		55% {opacity:0}
		60% {opacity:0}
		65% {opacity:.167}
		70% {opacity:.334}
		75% {opacity:.50}
		80% {opacity:.667}
		85% {opacity:.833}
		90% {opacity:1}
		95% {opacity:1}
		100% {opacity:1}		
	}

	
	.line3 {
		opacity: 0;
		animation: line3 2s .5s linear normal 1 forwards;
	}
	
	@keyframes line3 {
    	0% {opacity:0}
		5% {opacity:0}
		10% {opacity:0}
		15% {opacity:.167}
		20% {opacity:.334}
		25% {opacity:.50}
		30% {opacity:.667}
		35% {opacity:.833}
		40% {opacity:1}
		45% {opacity:.5}
		50% {opacity:0}
		55% {opacity:0}
		60% {opacity:0}
		65% {opacity:0}
		70% {opacity:.167}
		75% {opacity:.334}
		80% {opacity:.50}
		85% {opacity:.667}
		90% {opacity:.833}
		95% {opacity:1}
		100% {opacity:1}
	}

</style>
<g id="device">
	<g>
		<path class="st0" d="M42.407,28.025c-0.064-0.343-0.254-0.649-0.534-0.858l-1.995-1.488c-0.165-0.122-0.354-0.204-0.556-0.24
			l-1.502-0.263c-0.171-0.03-0.334-0.094-0.48-0.187c-0.988-0.634-5.25-3.262-10.933-5.25c-0.185-0.064-0.349-0.177-0.473-0.328
			l-0.495-0.603c-0.144-0.176-0.342-0.3-0.562-0.355l-2.337-0.656c-0.534-0.134-1.1-0.133-1.618,0.055
			c-2.965,1.075-10.652,4.514-18.843,11.044c-0.372,0.296-0.569,0.763-0.665,1.228c-0.243,1.175-0.307,2.716-0.41,4.094
			c-0.025,0.331,0.049,0.662,0.213,0.95l0.368,0.651c0.13,0.229,0.204,0.484,0.216,0.747l0.119,2.57
			c0.025,0.557,0.434,1.022,0.982,1.119l1.218,0.217c0.148,0.027,0.294,0.062,0.439,0.106l0.516,0.159
			c0.297,0.091,0.605,0.145,0.916,0.159c0.554,0.025,1.096,0.176,1.585,0.44l10.382,5.613c0.264,0.143,0.503,0.33,0.704,0.554
			l1.073,1.185c0.185,0.203,0.342,0.43,0.47,0.672c0.221,0.419,0.783,1.143,2.024,1.143c1.744,0,2.017-0.978,2.158-1.321
			l0.302-0.807l6.614-4.204l4.552,2.204c0.159,0.078,0.348,0.064,0.494-0.034l0.76-0.507l2.964,1.456
			c0.045,0.021,0.092,0.035,0.142,0.041c0.248,0.025,0.986,0.003,1.592-1.012c0.741-1.24,0.499-2.087-0.076-2.42
			c-0.575-0.332-2.722-1.361-2.722-1.361v-1.001c0-0.118-0.068-0.224-0.176-0.273l-1.654-0.752l2.243-1.845
			c0.264-0.218,0.581-0.364,0.917-0.425l0.528-0.095c0.251-0.045,0.49-0.138,0.706-0.273l0.153-0.095
			c0.23-0.144,0.376-0.392,0.39-0.662l0.189-3.62c0,0,0.605-0.454,0.62-1.618C42.936,31.005,42.585,28.991,42.407,28.025z"/>
		<path class="st1" d="M23.592,35.625l-1.356,2.187c-0.083,0.133-0.257,0.175-0.391,0.094l-2.088-1.272
			c-0.129-0.078-0.118-0.268,0.019-0.331l2.895-1.33c0.088-0.041,0.191-0.034,0.273,0.019l0.59,0.376
			C23.62,35.423,23.646,35.537,23.592,35.625z"/>
		<path class="st1" d="M36.712,28.209l-2.743,0.683c-0.064,0.016-0.132,0.006-0.188-0.028l-0.439-0.262
			c-0.097-0.058-0.122-0.188-0.051-0.278l1.229-1.564c0.078-0.099,0.217-0.124,0.325-0.059l1.921,1.164
			C36.907,27.952,36.875,28.168,36.712,28.209z"/>
		<path class="st1" d="M18.405,31.78l-0.218-0.103c-0.262-0.124-0.283-0.489-0.037-0.643l0.662-0.414
			c0.274-0.171,0.617-0.19,0.909-0.049l0.209,0.101c0.26,0.125,0.28,0.487,0.036,0.641l-0.657,0.413
			C19.036,31.898,18.695,31.918,18.405,31.78z"/>
		<path class="st1" d="M26.507,26.55l-0.166-0.087c-0.296-0.155-0.652-0.141-0.936,0.036l-0.636,0.398
			c-0.241,0.151-0.226,0.508,0.027,0.637l0.173,0.089c0.296,0.152,0.649,0.136,0.931-0.041l0.632-0.397
			C26.772,27.035,26.758,26.682,26.507,26.55z"/>
		<path class="st1" d="M23.233,28.602l-0.187-0.094c-0.294-0.148-0.643-0.131-0.922,0.043l-0.649,0.406
			c-0.244,0.152-0.226,0.513,0.032,0.64l0.195,0.096c0.293,0.145,0.641,0.127,0.917-0.047l0.644-0.405
			C23.505,29.089,23.488,28.731,23.233,28.602z"/>
		<path class="st1" d="M30.996,25.741L30.4,26.118c-0.238,0.15-0.225,0.501,0.023,0.634l0.116,0.062
			c0.299,0.16,0.662,0.146,0.948-0.036l0.592-0.376c0.236-0.15,0.224-0.498-0.022-0.632l-0.109-0.059
			C31.649,25.547,31.285,25.559,30.996,25.741z"/>
		<path class="st1" d="M17.357,29.431l-0.251-0.121c-0.29-0.14-0.631-0.122-0.904,0.047l-0.692,0.427
			c-0.247,0.153-0.227,0.519,0.036,0.644l0.259,0.123c0.289,0.137,0.628,0.117,0.9-0.051l0.686-0.426
			C17.636,29.92,17.617,29.556,17.357,29.431z"/>
		<path class="st1" d="M19.581,27.269l-0.679,0.419c-0.245,0.152-0.228,0.514,0.031,0.641l0.236,0.116
			c0.292,0.144,0.637,0.127,0.913-0.045l0.673-0.418c0.243-0.151,0.227-0.511-0.029-0.639l-0.227-0.114
			C20.207,27.082,19.86,27.097,19.581,27.269z"/>
		<path class="st1" d="M12.816,29.136l0.303,0.143c0.288,0.136,0.624,0.118,0.895-0.049l0.717-0.44
			c0.247-0.152,0.229-0.517-0.032-0.643l-0.294-0.142c-0.288-0.139-0.627-0.122-0.9,0.044l-0.724,0.442
			C12.533,28.643,12.552,29.011,12.816,29.136z"/>
		<path class="st1" d="M18.138,26.041l-0.269-0.135c-0.291-0.146-0.636-0.132-0.913,0.038l-0.71,0.433
			c-0.247,0.151-0.23,0.514,0.029,0.642l0.278,0.137c0.29,0.143,0.633,0.127,0.909-0.042l0.703-0.432
			C18.41,26.531,18.395,26.17,18.138,26.041z"/>
		<path class="st1" d="M21.582,23.975L21.3,23.827c-0.293-0.153-0.645-0.141-0.927,0.031l-0.732,0.447
			c-0.229,0.14-0.216,0.476,0.022,0.598l0.291,0.149c0.293,0.15,0.642,0.136,0.922-0.036l0.725-0.446
			C21.829,24.432,21.818,24.098,21.582,23.975z"/>
		<path class="st1" d="M22.93,25.2l-0.701,0.433c-0.227,0.14-0.214,0.475,0.024,0.597l0.25,0.128
			c0.294,0.151,0.646,0.136,0.927-0.038l0.695-0.432c0.226-0.14,0.213-0.472-0.022-0.595l-0.241-0.126
			C23.567,25.013,23.213,25.025,22.93,25.2z"/>
		<path class="st1" d="M20.744,32.888l0.178,0.084c0.292,0.138,0.635,0.117,0.908-0.056l0.628-0.399
			c0.243-0.154,0.222-0.515-0.037-0.64l-0.17-0.082c-0.293-0.141-0.638-0.122-0.912,0.052l-0.633,0.4
			C20.461,32.4,20.483,32.764,20.744,32.888z"/>
		<path class="st1" d="M10.022,30.175l-0.737,0.45c-0.251,0.153-0.229,0.525,0.039,0.647l0.329,0.149
			c0.285,0.129,0.615,0.109,0.882-0.055l0.731-0.449c0.249-0.153,0.228-0.522-0.038-0.645l-0.319-0.148
			C10.623,29.993,10.291,30.012,10.022,30.175z"/>
		<path class="st1" d="M12.791,31.464l-0.705,0.436c-0.25,0.154-0.226,0.525,0.041,0.646l0.284,0.129
			c0.287,0.13,0.619,0.109,0.886-0.058l0.699-0.434c0.248-0.154,0.225-0.522-0.039-0.644l-0.275-0.127
			C13.395,31.277,13.06,31.297,12.791,31.464z"/>
		<path class="st1" d="M11.952,26.821l-0.339-0.164c-0.286-0.138-0.623-0.123-0.895,0.042l-0.757,0.456
			c-0.251,0.151-0.232,0.52,0.032,0.646l0.349,0.165c0.286,0.135,0.621,0.118,0.891-0.046l0.749-0.455
			C12.231,27.314,12.214,26.947,11.952,26.821z"/>
		<path class="st1" d="M15.469,32.71l-0.674,0.421c-0.248,0.155-0.224,0.524,0.043,0.645l0.241,0.109
			c0.288,0.131,0.623,0.108,0.89-0.06l0.669-0.42c0.246-0.155,0.223-0.521-0.041-0.643l-0.232-0.108
			C16.076,32.52,15.739,32.541,15.469,32.71z"/>
		<path class="st1" d="M7.159,28.843l-0.771,0.465c-0.253,0.152-0.231,0.526,0.038,0.648l0.376,0.171
			c0.283,0.129,0.612,0.109,0.878-0.052l0.764-0.463c0.251-0.152,0.23-0.523-0.036-0.646l-0.366-0.17
			C7.757,28.664,7.427,28.682,7.159,28.843z"/>
		<path class="st1" d="M27.225,28.78l0.136,0.07c0.297,0.152,0.653,0.136,0.935-0.043l0.604-0.384
			c0.238-0.151,0.223-0.504-0.027-0.635l-0.129-0.067c-0.298-0.156-0.656-0.141-0.939,0.038l-0.609,0.385
			C26.956,28.295,26.972,28.65,27.225,28.78z"/>
		<path class="st1" d="M17.461,34.968l0.2,0.091c0.29,0.132,0.626,0.108,0.894-0.063l0.64-0.407c0.245-0.156,0.221-0.52-0.042-0.642
			l-0.192-0.089c-0.29-0.135-0.629-0.113-0.899,0.058l-0.645,0.408C17.17,34.48,17.196,34.848,17.461,34.968z"/>
		<path class="st1" d="M23.999,30.825l0.156,0.077c0.295,0.145,0.644,0.126,0.921-0.05l0.616-0.392
			c0.24-0.153,0.223-0.509-0.032-0.637l-0.149-0.075c-0.295-0.148-0.647-0.131-0.926,0.045l-0.621,0.392
			C23.723,30.339,23.742,30.698,23.999,30.825z"/>
		<path class="st1" d="M15.463,24.697L15.15,24.54c-0.289-0.145-0.632-0.132-0.909,0.035l-0.742,0.447
			c-0.248,0.15-0.233,0.515,0.027,0.643l0.323,0.159c0.288,0.142,0.63,0.127,0.905-0.04l0.735-0.446
			C15.735,25.189,15.72,24.826,15.463,24.697z"/>
		<path class="st1" d="M22.384,20.51l-0.263-0.143c-0.294-0.16-0.65-0.152-0.936,0.021l-0.712,0.429
			c-0.244,0.147-0.234,0.504,0.017,0.638l0.272,0.145c0.293,0.156,0.647,0.147,0.931-0.026l0.706-0.428
			C22.641,20.999,22.633,20.645,22.384,20.51z"/>
		<path class="st1" d="M18.977,22.613l-0.325-0.17c-0.291-0.152-0.641-0.142-0.922,0.028l-0.764,0.46
			c-0.23,0.139-0.219,0.476,0.021,0.599l0.335,0.172c0.291,0.149,0.639,0.137,0.918-0.033l0.757-0.459
			C19.225,23.071,19.214,22.737,18.977,22.613z"/>
		<path class="st1" d="M24.261,22.938l0.711-0.436c0.225-0.138,0.216-0.468-0.016-0.594l-0.258-0.14
			c-0.295-0.16-0.653-0.152-0.94,0.023l-0.717,0.438c-0.227,0.138-0.217,0.471,0.017,0.596l0.267,0.142
			C23.62,23.124,23.976,23.113,24.261,22.938z"/>
		<path class="st1" d="M26.746,24.259l0.681-0.423c0.223-0.139,0.214-0.467-0.017-0.593l-0.218-0.119
			c-0.297-0.161-0.657-0.151-0.945,0.026l-0.687,0.424c-0.225,0.139-0.215,0.47,0.019,0.595l0.227,0.121
			C26.103,24.448,26.461,24.436,26.746,24.259z"/>
		<path class="st1" d="M29.154,25.538l0.619-0.389c0.237-0.149,0.226-0.499-0.02-0.633l-0.145-0.079
			c-0.298-0.162-0.661-0.151-0.949,0.029l-0.623,0.39c-0.239,0.15-0.227,0.502,0.022,0.635l0.152,0.081
			C28.508,25.731,28.868,25.718,29.154,25.538z"/>
	</g>
</g>
<g id="line3" class="line3">
	<path class="st2" d="M5.754,7.399c8.532-8.532,22.416-8.532,30.948,0"/>
</g>
<g id="line2" class="line2">
	<path class="st2" d="M10.02,11.665c6.18-6.18,16.236-6.18,22.417,0"/>
</g>
<g id="line1" class="line1">
	<path class="st2" d="M14.286,15.931c3.834-3.834,10.051-3.834,13.885,0"/>
</g>
</svg>
