<?xml version="1.0" encoding="utf-8"?>
<!-- Generator: Adobe Illustrator 23.0.4, SVG Export Plug-In . SVG Version: 6.00 Build 0)  -->
<svg version="1.1" xmlns="http://www.w3.org/2000/svg" xmlns:xlink="http://www.w3.org/1999/xlink" x="0px" y="0px"
	 viewBox="0 0 52 52" style="enable-background:new 0 0 52 52;" xml:space="preserve">
<style type="text/css">
	.st0{fill:#FFFFFF;stroke:#25477B;stroke-width:1.25;stroke-linecap:round;stroke-linejoin:round;stroke-miterlimit:10;}
	.st1{fill:#FFFFFF;}
	.st2{fill:none;stroke:#25477B;stroke-width:1.25;stroke-linecap:round;stroke-linejoin:round;stroke-miterlimit:10;}
	.st3{fill:#FFFFFF;stroke:#0078D3;stroke-width:1.25;stroke-linecap:round;stroke-linejoin:round;stroke-miterlimit:10;}
	
	@keyframes alarmbell {
		0% {transform: rotate(0deg);}
		25% {transform: rotate(-2deg);}
		50% {transform: rotate(4deg);}
		75% {transform: rotate(-2deg);}
		100% {transform: rotate(0deg);}
	}
	
	.alarmbell {
		opacity: 1;
		animation: alarmbell .8s .5s linear 2 forwards;
		transform-origin: 64.973% 32.9%;
	}
	
	.alert {
		opacity: 0;
		animation: alert .8s 1.8s linear normal 1 forwards;
	}
	
	@keyframes alert {
    	0% {opacity:0}
		50% {opacity:.5}
		100% {opacity:1}
	}	
</style>
<g id="alarmbell" class="alarmbell">
	<g>
		<g>
			<g>
				<polygon class="st0" points="1.367,23.504 1.356,23.513 1.357,23.515 				"/>
				<path class="st0" d="M1.356,23.513c-0.005,0.005-0.008,0.011-0.013,0.017c0.005-0.005,0.01-0.01,0.015-0.015L1.356,23.513z"/>
				<path class="st0" d="M38.328,30.508l0.34-0.34c4.88-4.88,4.88-12.793,0-17.674c-4.881-4.881-12.793-4.88-17.674,0l-0.34,0.34
					c-2.826,2.826-6.389,4.81-10.287,5.696c-3.278,0.745-6.394,2.387-8.955,4.927c-0.015,0.015-0.029,0.031-0.045,0.046
					c1.716-1.669,8.962,2.837,16.208,10.083c7.261,7.261,11.771,14.522,10.074,16.219c2.532-2.532,4.181-5.613,4.947-8.86
					C33.526,37.005,35.464,33.372,38.328,30.508z"/>
				<g>
					<path class="st1" d="M17.575,33.588C10.329,26.341,3.082,21.836,1.367,23.504c-0.003,0.003-0.007,0.007-0.01,0.01
						c-0.005,0.005-0.01,0.01-0.015,0.015c-1.655,1.724,2.848,8.963,10.088,16.202c7.261,7.261,14.522,11.771,16.219,10.074
						C29.346,48.11,24.836,40.848,17.575,33.588z"/>
					<path class="st2" d="M17.575,33.588C10.329,26.341,3.082,21.836,1.367,23.504c-0.003,0.003-0.007,0.007-0.01,0.01
						c-0.005,0.005-0.01,0.01-0.015,0.015c-1.655,1.724,2.848,8.963,10.088,16.202c7.261,7.261,14.522,11.771,16.219,10.074
						C29.346,48.11,24.836,40.848,17.575,33.588z"/>
				</g>
				<path class="st0" d="M17.575,33.588c-1.273-1.273-2.546-2.46-3.789-3.545c-1.906,2.035-1.867,5.229,0.119,7.215
					s5.18,2.025,7.215,0.119C20.034,36.134,18.848,34.861,17.575,33.588z"/>
				<path class="st0" d="M38.667,12.495c0.967,0.967,1.739,2.054,2.323,3.212c0.839-0.183,1.639-0.598,2.291-1.25
					c1.816-1.816,1.816-4.76,0-6.576s-4.76-1.816-6.576,0c-0.653,0.653-1.067,1.452-1.25,2.291
					C36.613,10.756,37.7,11.528,38.667,12.495z"/>
			</g>
		</g>
	</g>
</g>
<g id="alert" class="alert">
	<circle class="st3" cx="16.764" cy="13.292" r="12.358"/>
	<g>
		<path class="st3" d="M16.764,18.898c-0.969,0-1.755,0.786-1.755,1.755c0,0.969,0.786,1.755,1.755,1.755
			c0.969,0,1.755-0.786,1.755-1.755C18.519,19.683,17.733,18.898,16.764,18.898z"/>
		<path class="st3" d="M16.764,3.407c-1.455,0-2.634,1.179-2.634,2.634c0,0.664,0.015,1.314,0.043,1.945
			c0.068,1.529,0.213,2.945,0.419,4.177c0.475,2.835,1.27,4.695,2.171,4.695c0.414,0,0.805-0.393,1.154-1.092
			c0.437-0.876,0.806-2.235,1.066-3.906c0.262-1.681,0.414-3.676,0.414-5.819C19.398,4.586,18.219,3.407,16.764,3.407z"/>
	</g>
</g>
</svg>
