<svg xmlns="http://www.w3.org/2000/svg" viewBox="0 0 52 52">
	<style type="text/css">
	.st0{fill:#FFFFFF;stroke:#25477B;stroke-width:1.5;stroke-linecap:round;stroke-linejoin:round;stroke-miterlimit:10;}
	.st1{fill:none;stroke:#25477B;stroke-width:1.5;stroke-linecap:round;stroke-linejoin:round;stroke-miterlimit:10;}
	.st2{fill:#FFFFFF;}
	.st3{fill:#FFFFFF;stroke:#0078D3;stroke-width:1.5;stroke-linecap:round;stroke-linejoin:round;stroke-miterlimit:10;}
	.st4{fill:none;stroke:#0078D3;stroke-width:1.5;stroke-linecap:round;stroke-linejoin:round;stroke-miterlimit:10;}
	
	.line1 {
		stroke-dasharray: 100;
		stroke-dashoffset: 100;
		animation: line 1.75s linear forwards;
		
	}

	.line2 {
		stroke-dasharray: 100;
		stroke-dashoffset: 100;
		animation: line 1.75s 0.4s linear forwards; 
	}
	
	.line3 {
		stroke-dasharray: 100;
		stroke-dashoffset: 100;
		animation: line 1.5s 1s linear forwards; 
	} 
	
	@keyframes line {
		from {10
		}
		to {
		stroke-dashoffset: 20;
		}
	
	
	}
</style>
  <g id="line" class="line1">
    <line x1="26.05" y1="26" x2="26.05" y2="12.57" fill="none" stroke="#0078d3" stroke-linecap="round" stroke-linejoin="round" stroke-width="1.5"/>
    <path d="M26.05,26h0a6.72,6.72,0,0,0-6.72-6.71H15.47a6.7,6.7,0,0,1-6.7-6.72h0" fill="none" stroke="#0078d3" stroke-linecap="round" stroke-linejoin="round" stroke-width="1.5"/>
    <path d="M26.05,26h0a6.7,6.7,0,0,1,6.71-6.71h3.36a6.72,6.72,0,0,0,6.72-6.72h0" fill="none" stroke="#0078d3" stroke-linecap="round" stroke-linejoin="round" stroke-width="1.5"/>
  </g>
  <g id="gear">
    <g>
      <path d="M36.36,35.53l-.75-.14a1.77,1.77,0,0,1-1.3-1.06h0a1.76,1.76,0,0,1,.18-1.65l.43-.63a1.76,1.76,0,0,0-.2-2.23L34,29.09a1.75,1.75,0,0,0-2.23-.2l-.63.43a1.74,1.74,0,0,1-1.65.17h0a1.74,1.74,0,0,1-1.06-1.3l-.14-.74A1.76,1.76,0,0,0,26.55,26h-1a1.77,1.77,0,0,0-1.73,1.44l-.13.74a1.74,1.74,0,0,1-1.06,1.3h0A1.75,1.75,0,0,1,21,29.32l-.62-.43a1.76,1.76,0,0,0-2.24.2l-.7.71a1.75,1.75,0,0,0-.26,2.2l.43.62a1.76,1.76,0,0,1,.18,1.66h0a1.77,1.77,0,0,1-1.3,1.06l-.75.14a1.75,1.75,0,0,0-1.43,1.72v1A1.74,1.74,0,0,0,15.73,40l.75.14a1.76,1.76,0,0,1,1.3,1h0a1.76,1.76,0,0,1-.18,1.66l-.43.63a1.75,1.75,0,0,0,.21,2.23l.7.71a1.76,1.76,0,0,0,2.23.2l.63-.43A1.75,1.75,0,0,1,22.61,46h0a1.77,1.77,0,0,1,1.06,1.3l.13.75a1.76,1.76,0,0,0,1.73,1.43h1a1.75,1.75,0,0,0,1.72-1.43l.14-.75A1.75,1.75,0,0,1,29.46,46h0a1.73,1.73,0,0,1,1.66.17l.63.43A1.76,1.76,0,0,0,34,46.4l.7-.71a1.75,1.75,0,0,0,.21-2.23l-.43-.63a1.73,1.73,0,0,1-.18-1.65h0a1.77,1.77,0,0,1,1.3-1.06l.75-.14a1.75,1.75,0,0,0,1.43-1.72v-1A1.74,1.74,0,0,0,36.36,35.53Z" fill="none" stroke="#25477b" stroke-linecap="round" stroke-linejoin="round" stroke-width="1.5"/>
      <path d="M31.59,35.51a6,6,0,1,1-2.67-3" fill="none" stroke="#25477b" stroke-linecap="round" stroke-linejoin="round" stroke-width="1.5"/>
    </g>
  </g>
  <g id="checkmark" class="line3">
    <polyline points="22.79 36.78 25.45 39.33 32.88 30.93" fill="none" stroke="#0078d3" stroke-linecap="round" stroke-linejoin="round" stroke-width="1.5"/>
  </g>
  <g id="shapes" class="line2">
    <g>
      <g>
        <polyline points="8.77 2.51 3.74 2.51 3.74 12.57 8.77 12.57" fill="#fff" stroke="#0078d3" stroke-linecap="round" stroke-linejoin="round" stroke-width="1.5"/>
        <polyline points="8.77 12.57 13.8 12.57 13.8 2.51 8.77 2.51" fill="#fff" stroke="#0078d3" stroke-linecap="round" stroke-linejoin="round" stroke-width="1.5"/>
      </g>
      <polyline points="26 2.6 20.27 12.57 26 12.57" fill="#fff" stroke="#0078d3" stroke-linecap="round" stroke-linejoin="round" stroke-width="1.5"/>
      <polyline points="26 12.57 31.82 12.57 26.05 2.51 26 2.6" fill="#fff" stroke="#0078d3" stroke-linecap="round" stroke-linejoin="round" stroke-width="1.5"/>
      <polyline points="42.84 2.51 39.48 2.51 37.41 8.89 42.84 12.83" fill="#fff" stroke="#0078d3" stroke-linecap="round" stroke-linejoin="round" stroke-width="1.5"/>
      <polyline points="42.84 12.83 48.27 8.89 46.19 2.51 42.84 2.51" fill="#fff" stroke="#0078d3" stroke-linecap="round" stroke-linejoin="round" stroke-width="1.5"/>
    </g>
  </g>
</svg>
