<?xml version="1.0" encoding="utf-8"?>
<!-- Generator: Adobe Illustrator 23.0.4, SVG Export Plug-In . SVG Version: 6.00 Build 0)  -->
<svg version="1.1" xmlns="http://www.w3.org/2000/svg" xmlns:xlink="http://www.w3.org/1999/xlink" x="0px" y="0px"
	 viewBox="0 0 52 52" style="enable-background:new 0 0 52 52;" xml:space="preserve">
<style type="text/css">
	.st0{fill:#FFFFFF;stroke:#25477B;stroke-width:1.25;stroke-linecap:round;stroke-linejoin:round;stroke-miterlimit:10;}
	.st1{fill:#0078D3;}
	.st2{fill:#FFFFFF;stroke:#0078D3;stroke-width:1.25;stroke-linecap:round;stroke-linejoin:round;stroke-miterlimit:10;}
	.st3{fill:none;stroke:#0078D3;stroke-width:1.25;stroke-linecap:round;stroke-linejoin:round;stroke-miterlimit:10;}
	
	
	.circle1 {
		opacity: 0;
		animation: circle1 .3s linear normal 1 forwards;
	}
			
	@keyframes circle1 {
		0% {opacity:0}
		50% {opacity:.5}
		100% {opacity:1}
	}	
	
	.line1 {
		stroke-dasharray: 50;
		stroke-dashoffset: 50;
		animation: line1 .5s .5s linear forwards;
	}
	
	@keyframes line1 {
		from {stroke-dashoffset: 50;
		}
		to {
		stroke-dashoffset: 0;
		}
	}	
	
	.circle2 {
		opacity: 0;
		animation: circle2 .3s .8s linear normal 1 forwards;
	}
			
	@keyframes circle2 {
		0% {opacity:0}
		50% {opacity:.5}
		100% {opacity:1}
	}

	.line2 {
		stroke-dasharray: 50;
		stroke-dashoffset: 50;
		animation: line2 .5s 1.1s linear forwards;
	}
	
	@keyframes line2 {
		from {stroke-dashoffset: 50;
		}
		to {
		stroke-dashoffset: 0;
		}
	}		

	.circle3 {
		opacity: 0;
		animation: circle3 .3s 1.4s linear normal 1 forwards;
	}
			
	@keyframes circle3 {
		0% {opacity:0}
		50% {opacity:.5}
		100% {opacity:1}
	}

	.line3 {
		stroke-dasharray: 50;
		stroke-dashoffset: 50;
		animation: line3 .5s 1.7s linear forwards;
	}
	
	@keyframes line3 {
		from {stroke-dashoffset: 50;
		}
		to {
		stroke-dashoffset: 0;
		}
	}	

	.circle4 {
		opacity: 0;
		animation: circle4 .3s 2s linear normal 1 forwards;
	}
			
	@keyframes circle4 {
		0% {opacity:0}
		50% {opacity:.5}
		100% {opacity:1}
	}
	
</style>
<g id="browser">
	<path class="st0" d="M46.481,43H12.146C9.856,43,8,41.144,8,38.854v-25.59c0-2.29,1.856-4.146,4.146-4.146h34.336
		c2.29,0,4.146,1.856,4.146,4.146v25.59C50.627,41.144,48.771,43,46.481,43z"/>
	<line class="st0" x1="8" y1="16.425" x2="50.627" y2="16.425"/>
	<g>
		<circle class="st1" cx="12.434" cy="12.772" r="1.232"/>
		<circle class="st1" cx="16.556" cy="12.772" r="1.232"/>
		<circle class="st1" cx="20.678" cy="12.772" r="1.232"/>
	</g>
	<path class="st2" d="M11.339,49.662L15.84,36.16L2.338,40.66c-0.305,0.102-0.35,0.514-0.075,0.68l3.493,2.096l-4.175,4.175
		c-0.775,0.775-0.775,2.032,0,2.807l0,0c0.775,0.775,2.032,0.775,2.807,0l4.175-4.175l2.096,3.493
		C10.825,50.012,11.238,49.967,11.339,49.662z"/>
</g>
<g id="line1" class="line1">
	<line class="st3" x1="15.854" y1="30.684" x2="23.042" y2="26.357"/>
</g>
<g id="line2" class="line2">
	<line class="st3" x1="24.777" y1="25.312" x2="32.108" y2="29.652"/>
</g>
<g id="line3" class="line3">
	<line class="st3" x1="33.85" y1="30.684" x2="41.04" y2="26.355"/>
</g>
<g id="circle4" class="circle4">
	<circle class="st2" cx="42.773" cy="25.312" r="2.025"/>
</g>
<g id="circle3" class="circle3">
	<circle class="st2" cx="33.85" cy="30.684" r="2.025"/>
</g>
<g id="circle2" class="circle2">
	<circle class="st2" cx="24.777" cy="25.312" r="2.025"/>
</g>
<g id="circle1" class="circle1">
	<circle class="st2" cx="15.854" cy="30.684" r="2.025"/>
</g>
</svg>
