<?xml version="1.0" encoding="utf-8"?>
<!-- Generator: Adobe Illustrator 23.0.4, SVG Export Plug-In . SVG Version: 6.00 Build 0)  -->
<svg version="1.1" xmlns="http://www.w3.org/2000/svg" xmlns:xlink="http://www.w3.org/1999/xlink" x="0px" y="0px"
	 viewBox="0 0 52 52" style="enable-background:new 0 0 52 52;" xml:space="preserve">
<style type="text/css">
	.st0{fill:#FFFFFF;stroke:#23487B;stroke-width:1.25;stroke-linecap:round;stroke-linejoin:round;stroke-miterlimit:10;}
	.st1{fill:#FFFFFF;stroke:#0078D3;stroke-width:1.25;stroke-linecap:round;stroke-linejoin:round;stroke-miterlimit:10;}
	
	.engine {
		stroke-dasharray: 155;
		stroke-dashoffset: 155;
		animation: engine 1.5s linear forwards;
	}
	
	@keyframes engine {
		from {stroke-dashoffset: 155;
		}
		to {
		stroke-dashoffset: 0;
		}
	}	
	
	.alert {
		opacity: 0;
		animation: alert 1.25s 1.4s linear normal forwards;
	}

	@keyframes alert{
		0% {opacity: 0;}
		10% {opacity: 1;}
		45% {opacity: 1;}
		55% {opacity: 0;}
		90% {opacity: 0;}
		100% {opacity: 1;}
	}	
</style>
<g id="engine" class="engine">
	<path class="st0" d="M15.417,25.995"/>
	<g>
		<path class="st0" d="M1,32.011v5.574c0,0.612,0.503,1.123,1.12,1.123h3.962c0.62,0,1.487,0.28,1.919,0.717l4.455,4.425
			c0.438,0.436,0.716,1.305,0.716,1.915v3.276c0,0.621,0.505,1.123,1.12,1.123H34.96c0.615,0,1.123-0.497,1.123-1.123v-3.174h2.365
			v1.736c0,0.622,0.512,1.128,1.125,1.128h2.766c0.618,0,1.121-0.508,1.121-1.128V27.878c0.01-0.625-0.496-1.132-1.114-1.132h-2.775
			c-0.618,0-1.124,0.508-1.124,1.123v1.741h-2.365v-3.173c0-0.616-0.503-1.123-1.123-1.123H27.49v-2.07
			c0-0.619-0.503-1.121-1.123-1.121H15.736c-0.625-0.02-1.133,0.487-1.133,1.107v2.084H2.12c-0.615,0-1.12,0.508-1.12,1.123V32.011z
			"/>
	</g>
</g>
<g id="alert" class="alert">
	<g>
		<path class="st1" d="M22.465,32.927c-0.82-0.003-1.552-0.43-1.959-1.142c-0.407-0.71-0.403-1.557,0.01-2.266L33.726,6.841
			c0.412-0.708,1.147-1.129,1.967-1.126s1.552,0.43,1.959,1.141l13.034,22.78c0.407,0.712,0.404,1.559-0.009,2.267
			c-0.413,0.708-1.148,1.128-1.967,1.125L22.465,32.927z"/>
		<g>
			<ellipse transform="matrix(0.0039 -1 1 0.0039 7.1985 63.7668)" class="st0" cx="35.606" cy="28.27" rx="1.786" ry="1.786"/>
			<path class="st0" d="M37.887,14.775c-0.02,5.059-1.034,9.155-2.266,9.151c-1.232-0.005-2.215-4.109-2.195-9.168
				c0.005-1.232,1.007-2.227,2.239-2.222C36.897,12.54,37.892,13.543,37.887,14.775z"/>
		</g>
	</g>
</g>
</svg>
