<?xml version="1.0" encoding="utf-8"?>
<!-- Generator: Adobe Illustrator 23.0.4, SVG Export Plug-In . SVG Version: 6.00 Build 0)  -->
<svg version="1.1" xmlns="http://www.w3.org/2000/svg" xmlns:xlink="http://www.w3.org/1999/xlink" x="0px" y="0px"
	 viewBox="0 0 52 52" style="enable-background:new 0 0 52 52;" xml:space="preserve">
<style type="text/css">
	.st0{fill:#FFFFFF;stroke:#23487B;stroke-width:1.25;stroke-linecap:round;stroke-linejoin:round;stroke-miterlimit:10;}
	.st1{fill:none;stroke:#25477B;stroke-width:1.25;stroke-linecap:round;stroke-linejoin:round;stroke-miterlimit:10;}
	.st2{fill:none;stroke:#0078D3;stroke-width:1.25;stroke-linecap:round;stroke-linejoin:round;stroke-miterlimit:10;}

	.dollar1 {
		stroke-dasharray: 155;
		stroke-dashoffset: 155;
		animation: dollar1 2.25s .25s linear forwards;
	}
	
	@keyframes dollar1 {
		from {stroke-dashoffset: 155;
		}
		to {
		stroke-dashoffset: 0;
		}
	}	
	
	.dollar2 {
		stroke-dasharray: 27;
		stroke-dashoffset: 27;
		animation: dollar2 .35s 1.15s linear forwards;
	}
	
	@keyframes dollar2 {
		from {stroke-dashoffset: 27;
		}
		to {
		stroke-dashoffset: 54;
		}
	}	
	
</style>
<g id="vehicle">
	<path class="st0" d="M15.417,25.995"/>
	<g>
		<g>
			<g>
				<path class="st1" d="M45.677,44.378V38.65c0-1.461-1.036-2.718-2.47-2.996l-6.105-1.185l-2.395-4.227
					c-0.586-1.035-1.684-1.674-2.873-1.674h-6.616l-1.309,12.091H4.494v3.368h1.459l1.172,2.064c0,2.25,1.824,4.074,4.074,4.074
					s4.074-1.824,4.074-4.074h1.029c0,2.25,1.824,4.074,4.074,4.074s4.074-1.824,4.074-4.074h9.068l0,0
					c0,2.25,1.824,4.074,4.074,4.074c2.25,0,4.074-1.824,4.074-4.074l0,0l0,0h2.298C44.911,46.09,45.677,45.324,45.677,44.378z"/>
				<circle class="st1" cx="11.2" cy="46.09" r="1.804"/>
				<circle class="st1" cx="11.2" cy="46.09" r="1.804"/>
				<circle class="st1" cx="37.593" cy="46.09" r="1.804"/>
				<circle class="st1" cx="20.377" cy="46.09" r="1.804"/>
				<path class="st1" d="M50.968,49.513c-3.415-3.415-3.415-8.951,0-12.365"/>
				<line class="st1" x1="45.684" y1="43.331" x2="48.407" y2="43.331"/>
				<polyline class="st1" points="27.072,28.567 27.072,25.583 23.288,25.583 19.447,29.226 1,29.226 2.6,40.657 4.68,40.657 				
					"/>
				<g>
					<path class="st1" d="M31.805,31.05h-4.358l-0.37,3.418h7.169l-1.687-2.978C32.405,31.218,32.117,31.05,31.805,31.05z"/>
				</g>
			</g>
			<path class="st1" d="M23.288,25.583L23.288,25.583c-1.438-2.219-3.932-3.69-6.773-3.69c-3.04,0-5.685,1.682-7.062,4.165
				c-0.328-0.061-0.665-0.097-1.011-0.097c-2.241,0-4.165,1.342-5.022,3.264"/>
		</g>
	</g>
</g>
<g id="dollar1" class="dollar1">
	<g>
		<path class="st2" d="M49.956,10.627c0-2.798-2.931-5.067-6.546-5.067c-3.615,0-6.546,2.268-6.546,5.067
			s2.931,5.067,6.546,5.067c3.615,0,6.546,2.268,6.546,5.067s-2.931,5.067-6.546,5.067c-3.615,0-6.546-2.268-6.546-5.067"/>
	</g>
</g>
<g id="dollar2" class="dollar2">
	<line class="st2" x1="43.411" y1="29.129" x2="43.411" y2="2.257"/>
</g>
</svg>
