<?xml version="1.0" encoding="utf-8"?>
<!-- Generator: Adobe Illustrator 23.0.4, SVG Export Plug-In . SVG Version: 6.00 Build 0)  -->
<svg version="1.1" xmlns="http://www.w3.org/2000/svg" xmlns:xlink="http://www.w3.org/1999/xlink" x="0px" y="0px"
	 viewBox="0 0 52 52" style="enable-background:new 0 0 52 52;" xml:space="preserve">
<style type="text/css">
	.st0{fill:none;stroke:#25477B;stroke-width:1.25;stroke-miterlimit:10;}
	.st1{fill:#FFFFFF;stroke:#0078D3;stroke-width:1.25;stroke-linecap:round;stroke-linejoin:round;stroke-miterlimit:10;}
	
	.lines1 {
		opacity: 0;
		animation: lines1 .7s .3s linear normal 1 forwards;
	}
	
	@keyframes lines1 {
    	0% {opacity:0}
		50% {opacity:.5}
		100% {opacity:1}
	}	
	
	.lines2 {
		opacity: 0;
		animation: lines2 .7s 1s linear normal 1 forwards;
	}
	
	@keyframes lines2 {
    	0% {opacity:0}
		50% {opacity:.5}
		100% {opacity:1}
	}		

	.lines3 {
		opacity: 0;
		animation: lines3 .7s 1.7s linear normal 1 forwards;
	}
	
	@keyframes lines3 {
    	0% {opacity:0}
		50% {opacity:.5}
		100% {opacity:1}
	}	
	
</style>
<g id="center-circle">
	<path class="st0" d="M25.85,27.499c-2.568,0-4.65,2.082-4.65,4.65c0,2.568,2.082,4.65,4.65,4.65c2.568,0,4.65-2.082,4.65-4.65
		C30.5,29.581,28.418,27.499,25.85,27.499z"/>
</g>
<g id="llines3" class="lines3">
	<path class="st1" d="M42.35,50.164c-0.404,0-0.785-0.157-1.07-0.443c-0.287-0.286-0.444-0.667-0.444-1.071s0.157-0.785,0.444-1.071
		c4.12-4.122,6.39-9.601,6.39-15.429s-2.27-11.307-6.39-15.429c-0.287-0.286-0.444-0.667-0.444-1.071
		c0-0.404,0.157-0.785,0.444-1.071c0.285-0.286,0.666-0.443,1.07-0.443c0.405,0,0.786,0.157,1.071,0.443
		c4.694,4.693,7.278,10.934,7.278,17.571s-2.584,12.878-7.278,17.571C43.136,50.007,42.755,50.164,42.35,50.164z"/>
	<path class="st1" d="M9.351,50.164c-0.405,0-0.785-0.157-1.072-0.443C3.585,45.026,1,38.786,1,32.149
		c0-6.638,2.585-12.878,7.279-17.571c0.286-0.286,0.666-0.443,1.072-0.443c0.405,0,0.786,0.157,1.072,0.443
		c0.59,0.591,0.59,1.552,0,2.143c-4.122,4.121-6.391,9.601-6.391,15.429s2.27,11.308,6.391,15.429c0.59,0.591,0.59,1.552,0,2.143
		C10.136,50.007,9.755,50.164,9.351,50.164z"/>
</g>
<g id="lines2" class="lines2">
	<path class="st1" d="M37.962,45.777c-0.404,0-0.785-0.157-1.071-0.442c-0.591-0.592-0.591-1.554,0-2.144
		c2.949-2.95,4.574-6.871,4.574-11.042s-1.625-8.092-4.574-11.041c-0.592-0.591-0.592-1.552,0-2.143
		c0.285-0.286,0.666-0.443,1.071-0.443s0.786,0.157,1.071,0.443c3.522,3.522,5.462,8.205,5.462,13.184
		c0,4.979-1.939,9.662-5.462,13.184C38.748,45.62,38.367,45.777,37.962,45.777z"/>
	<path class="st1" d="M13.737,45.777c-0.404,0-0.785-0.157-1.072-0.444c-3.521-3.521-5.46-8.202-5.46-13.184
		s1.939-9.663,5.46-13.184c0.286-0.286,0.667-0.443,1.072-0.443s0.786,0.157,1.072,0.443c0.286,0.285,0.443,0.666,0.443,1.071
		s-0.157,0.786-0.443,1.071c-2.949,2.949-4.573,6.87-4.573,11.041c0,4.172,1.624,8.093,4.573,11.041
		c0.286,0.285,0.443,0.666,0.443,1.071s-0.157,0.786-0.443,1.071C14.522,45.62,14.141,45.777,13.737,45.777z"/>
</g>
<g id="lines1" class="lines1">
	<path class="st1" d="M33.55,41.365c-0.405,0-0.786-0.157-1.072-0.444c-0.286-0.286-0.443-0.667-0.443-1.071
		s0.157-0.785,0.444-1.071c1.771-1.771,2.746-4.124,2.746-6.629c0-2.504-0.976-4.857-2.746-6.629c-0.592-0.591-0.592-1.552,0-2.143
		c0.286-0.287,0.667-0.444,1.071-0.444s0.785,0.157,1.071,0.444c2.344,2.343,3.634,5.458,3.634,8.771s-1.29,6.429-3.634,8.771
		C34.335,41.208,33.955,41.365,33.55,41.365z"/>
	<path class="st1" d="M18.15,41.365c-0.405,0-0.785-0.157-1.072-0.444c-2.343-2.343-3.633-5.458-3.633-8.771
		s1.291-6.429,3.633-8.771c0.287-0.287,0.667-0.444,1.072-0.444c0.404,0,0.785,0.157,1.071,0.444
		c0.287,0.286,0.444,0.667,0.444,1.071s-0.158,0.785-0.444,1.071c-1.771,1.771-2.745,4.125-2.745,6.629s0.975,4.858,2.745,6.629
		c0.287,0.286,0.444,0.667,0.444,1.071s-0.158,0.785-0.444,1.071C18.935,41.208,18.554,41.365,18.15,41.365z"/>
</g>
</svg>
