<svg id="Layer_1" data-name="Layer 1" xmlns="http://www.w3.org/2000/svg" viewBox="0 0 52 52"><defs><style>.cls-1{fill:#fff;stroke:#23487c;stroke-linecap:round;stroke-linejoin:round;}.cls-1,.cls-2{stroke-width:1.25px;}.cls-2{fill:none;stroke:#2d76bc;stroke-miterlimit:10;}</style></defs><rect class="cls-1" x="9.74" y="1" width="32.53" height="50" rx="3.24"/><line class="cls-1" x1="9.74" y1="43.85" x2="42.26" y2="43.85"/><line class="cls-1" x1="42.26" y1="7.34" x2="9.74" y2="7.34"/><rect class="cls-1" x="9.74" y="1" width="32.53" height="50" rx="3.24"/><line class="cls-1" x1="30.7" y1="4.21" x2="21.3" y2="4.21"/><circle class="cls-1" cx="26" cy="47.43" r="1.59"/><rect class="cls-1" x="9.74" y="7.34" width="32.53" height="36.51"/><path class="cls-2" d="M20.15,23.74H18.77a1,1,0,0,0-1,1V35.52a1,1,0,0,0,1,1H33.23a1,1,0,0,0,1-1V24.77a1,1,0,0,0-1-1H20.15Z"/><path class="cls-2" d="M22.62,23.74l-1.13-3A3.47,3.47,0,0,1,28,18.29l.72,1.9a.54.54,0,0,0,.7.31L30.75,20a.55.55,0,0,0,.32-.7l-.73-1.9a6,6,0,1,0-11.23,4.28l.79,2.07h2.72Z"/><path class="cls-2" d="M20.15,23.74H18.77a1,1,0,0,0-1,1V35.52a1,1,0,0,0,1,1H33.23a1,1,0,0,0,1-1V24.77a1,1,0,0,0-1-1H20.15Z"/></svg>