<?xml version="1.0" encoding="utf-8"?>
<!-- Generator: Adobe Illustrator 23.0.4, SVG Export Plug-In . SVG Version: 6.00 Build 0)  -->
<svg version="1.1" xmlns="http://www.w3.org/2000/svg" xmlns:xlink="http://www.w3.org/1999/xlink" x="0px" y="0px"
	 viewBox="0 0 52 52" style="enable-background:new 0 0 52 52;" xml:space="preserve">
<style type="text/css">
	.st0{fill:none;stroke:#0078D3;stroke-width:1.5;stroke-linecap:round;stroke-linejoin:round;stroke-miterlimit:10;}
	.st1{fill:#FFFFFF;}
	.st2{fill:none;stroke:#25477B;stroke-width:1.5;stroke-linecap:round;stroke-linejoin:round;stroke-miterlimit:10;}

	.bar1 {
		opacity: 0;
		animation: slide 1.5s .25s ease normal 1 forwards;
	}
	
	.bar2 {
		opacity: 0;
		animation: slide 1.5s .5s ease normal 1 forwards;
	}
	
	.bar3 {
		opacity: 0;
		animation: slide 1.5s .75s ease normal 1 forwards;
	}
	
	.bar4 {
		opacity: 0;
		animation: slide 1.5s 1s ease normal 1 forwards;
	}
	
	@keyframes slide {
		0% {transform: translateY(0px) rotate(0deg); opacity: 1;}
		100% {transform: translateY(-20px) rotate(0deg); opacity: 1;}
	}
	
	.externalcircle {
		opacity: 1;
		animation: externalcircle 2.5s .25s ease normal 1 forwards;
		transform-origin: 49.608% 49.43%;
	}
	
	@keyframes externalcircle {
		0% {transform: translateY(0px) rotate(0deg); opacity: 1;}
		100% {transform: translateY(0px) rotate(180deg); opacity: 1;}
	}

</style>

<g id="bar1" class="bar1">
	<path class="st0" d="M18.208,61.267h-3.374V51.009c0-0.548,0.444-0.992,0.992-0.992h1.39c0.548,0,0.992,0.444,0.992,0.992V61.267z"
		/>
</g>
<g id="bar2" class="bar2">
	<path class="st0" d="M24.391,61.267h-3.374V48.103c0-0.548,0.444-0.992,0.992-0.992h1.39c0.548,0,0.992,0.444,0.992,0.992V61.267z"
		/>
</g>
<g id="bar3" class="bar3">
	<path class="st0" d="M30.575,61.267h-3.374V45.198c0-0.548,0.444-0.992,0.992-0.992h1.39c0.548,0,0.992,0.444,0.992,0.992V61.267z"
		/>
</g>
<g id="bar4" class="bar4">
	<path class="st0" d="M36.759,61.267h-3.374V42.292c0-0.548,0.444-0.992,0.992-0.992h1.39c0.548,0,0.992,0.444,0.992,0.992V61.267z"
		/>
</g>
<g id="block">
	<path class="st1" d="M52,63.174H0V0h52V63.174z M25.796,10.442c-8.429,0-15.262,6.833-15.262,15.262s6.833,15.262,15.262,15.262
		s15.262-6.833,15.262-15.262S34.225,10.442,25.796,10.442z"/>
</g>
<g id="internalcircle">
	<circle class="st2" cx="25.796" cy="25.704" r="15.262"/>
</g>
<g id="externalcircle" class="externalcircle">
	<g>
		<g>
			<g>
				<g>
					<path class="st2" d="M48.265,30.245c1.27-0.361,2.174-1.48,2.267-2.797c0.04-0.576,0.061-1.158,0.061-1.744
						c0-0.586-0.021-1.168-0.061-1.744c-0.092-1.317-0.997-2.436-2.267-2.797l-1.467-0.417c-0.975-0.277-1.744-1.015-2.093-1.967
						c-0.192-0.525-0.406-1.04-0.64-1.544c-0.428-0.921-0.407-1.987,0.088-2.875l0.741-1.331c0.643-1.154,0.49-2.586-0.377-3.583
						c-0.763-0.878-1.586-1.701-2.464-2.464c-0.997-0.867-2.429-1.02-3.583-0.377L37.14,7.347c-0.887,0.494-1.953,0.515-2.874,0.088
						c-0.504-0.234-1.019-0.447-1.544-0.64c-0.952-0.349-1.689-1.118-1.967-2.093l-0.417-1.467c-0.361-1.27-1.481-2.175-2.798-2.267
						c-0.576-0.04-1.158-0.061-1.744-0.061c-0.587,0-1.168,0.021-1.744,0.061c-1.317,0.092-2.436,0.997-2.798,2.267l-0.417,1.467
						c-0.277,0.975-1.015,1.744-1.967,2.093c-0.525,0.192-1.04,0.406-1.544,0.64c-0.921,0.428-1.987,0.407-2.874-0.088l-1.331-0.741
						c-1.154-0.643-2.586-0.49-3.583,0.377C8.661,7.745,7.838,8.569,7.075,9.446c-0.867,0.997-1.02,2.429-0.377,3.583L7.44,14.36
						c0.494,0.887,0.515,1.953,0.088,2.874c-0.234,0.504-0.447,1.019-0.64,1.544c-0.349,0.952-1.118,1.689-2.093,1.967l-1.467,0.417
						c-1.27,0.361-2.175,1.481-2.267,2.798C1.021,24.536,1,25.117,1,25.704c0,0.586,0.021,1.168,0.061,1.744
						c0.092,1.317,0.997,2.436,2.267,2.798l1.467,0.417c0.975,0.277,1.744,1.015,2.093,1.967c0.192,0.525,0.406,1.04,0.64,1.544
						c0.428,0.921,0.407,1.987-0.088,2.874l-0.741,1.331c-0.643,1.154-0.49,2.586,0.377,3.583c0.763,0.878,1.586,1.701,2.464,2.464
						c0.997,0.867,2.429,1.02,3.583,0.377l1.331-0.741c0.887-0.494,1.953-0.515,2.874-0.088c0.504,0.234,1.019,0.447,1.544,0.64
						c0.952,0.349,1.689,1.118,1.967,2.093l0.417,1.467c0.361,1.27,1.481,2.175,2.798,2.267c0.576,0.04,1.158,0.061,1.744,0.061
						c0.586,0,1.168-0.021,1.744-0.061c1.317-0.092,2.436-0.997,2.798-2.267l0.417-1.467c0.277-0.975,1.015-1.744,1.967-2.093
						c0.525-0.192,1.04-0.406,1.544-0.64c0.921-0.428,1.987-0.407,2.874,0.088l1.331,0.741c1.154,0.643,2.586,0.49,3.583-0.377
						c0.878-0.763,1.701-1.586,2.464-2.464c0.867-0.997,1.02-2.429,0.377-3.583l-0.741-1.331c-0.494-0.887-0.515-1.953-0.088-2.875
						c0.234-0.504,0.447-1.019,0.64-1.544c0.349-0.952,1.118-1.689,2.093-1.967L48.265,30.245z"/>
				</g>
			</g>
		</g>
	</g>
</g>

</svg>
