<?xml version="1.0" encoding="utf-8"?>
<!-- Generator: Adobe Illustrator 23.0.4, SVG Export Plug-In . SVG Version: 6.00 Build 0)  -->
<svg version="1.1" xmlns="http://www.w3.org/2000/svg" xmlns:xlink="http://www.w3.org/1999/xlink" x="0px" y="0px"
	 viewBox="0 0 52 52" style="enable-background:new 0 0 52 52;" xml:space="preserve">
<style type="text/css">
	.st0{fill:#FFFFFF;stroke:#23487B;stroke-width:1.25;stroke-linecap:round;stroke-linejoin:round;stroke-miterlimit:10;}
	.st1{fill:#FFFFFF;stroke:#0078D3;stroke-width:1.25;stroke-linecap:round;stroke-linejoin:round;stroke-miterlimit:10;}
	
	.engine {
		stroke-dasharray: 155;
		stroke-dashoffset: 155;
		animation: engine 2.25s .5s linear forwards;
	}
	
	@keyframes engine {
		from {stroke-dashoffset: 155;
		}
		to {
		stroke-dashoffset: 0;
		}
	}	

</style>
<g id="engine" class="engine">
	<path class="st0" d="M15.417,25.995"/>
	<path class="st0" d="M12.537,23.135c-0.472-0.477-1.418-0.783-2.095-0.783H6.117c-0.673,0-1.222-0.558-1.222-1.226V8.955
		c0-0.671,0.55-1.226,1.222-1.226h13.629V5.454c0-0.676,0.554-1.23,1.236-1.208H32.59c0.676,0,1.226,0.547,1.226,1.224v2.26h8.154
		c0.676,0,1.226,0.554,1.226,1.226v3.464h2.582v-1.901c0-0.671,0.552-1.226,1.227-1.226h3.03c0.674,0,1.227,0.553,1.216,1.235
		v21.535c0,0.676-0.549,1.231-1.224,1.231h-3.02c-0.669,0-1.228-0.553-1.228-1.231v-1.895h-2.582v3.465
		c0,0.683-0.554,1.226-1.226,1.226H19.405c-0.671,0-1.222-0.547-1.222-1.226v-3.577c0-0.667-0.304-1.615-0.782-2.091l-3.897-3.883"
		/>
</g>
<g id="magnifyingglass">
	<path class="st1" d="M19.484,19.555c-6.686,0-12.126,5.439-12.126,12.126c0,2.503,0.762,4.831,2.067,6.765l-7.742,7.742
		c-0.91,0.91-0.91,2.384,0,3.294c0.454,0.455,1.05,0.683,1.647,0.683c0.596,0,1.192-0.228,1.647-0.683l7.742-7.742
		c1.933,1.305,4.262,2.067,6.765,2.067c6.686,0,12.126-5.439,12.126-12.126S26.17,19.555,19.484,19.555z M19.484,40.156
		c-4.674,0-8.476-3.802-8.476-8.476c0-4.674,3.802-8.476,8.476-8.476c4.674,0,8.476,3.802,8.476,8.476
		C27.959,36.354,24.157,40.156,19.484,40.156z"/>
</g>
</svg>

