<svg id="Layer_1" data-name="Layer 1" xmlns="http://www.w3.org/2000/svg" viewBox="0 0 52 52"><defs><style>.cls-1{fill:#fff;stroke:#0078d3;fill-rule:evenodd;}.cls-1,.cls-2{stroke-linecap:round;stroke-linejoin:round;stroke-width:1.25px;}.cls-2{fill:none;stroke:#25477b;}</style></defs><g id="pin1"><path id="Path_2214" data-name="Path 2214" class="cls-1" d="M39.82,1a8.22,8.22,0,0,0-8.23,8.22v0c0,4.53,8.23,13.15,8.23,13.15S48,13.76,48,9.25A8.23,8.23,0,0,0,39.84,1Zm0,11.32a3.11,3.11,0,1,1,3.1-3.11v0A3.1,3.1,0,0,1,39.82,12.32Z"/></g><path class="cls-2" d="M45,36.79V31.58a1.58,1.58,0,0,0-1.1-1.49,60.62,60.62,0,0,0-14.57-2.37l-2.53-9.63a2,2,0,0,0-1.9-1.46H7.69a.57.57,0,0,0-.57.56v1.1a.58.58,0,0,0,.57.57H8.82L7.17,27.55H5.44a1.13,1.13,0,0,0-1,.67L3.27,30.8a.53.53,0,0,0,.49.75H6.82v.51"/><circle class="cls-2" cx="42.78" cy="43.74" r="7.26"/><circle class="cls-2" cx="12.19" cy="40.77" r="10.23"/><circle class="cls-2" cx="42.78" cy="43.74" r="3.58"/><circle class="cls-2" cx="12.19" cy="40.77" r="5.7"/><line class="cls-2" x1="17.9" y1="32.27" x2="17.9" y2="16.63"/><path class="cls-2" d="M31.89,27.9V24.06a2.73,2.73,0,0,1,1.36-2.36"/><path class="cls-2" d="M29.29,27.72v6.72a1.69,1.69,0,0,1-1.69,1.69H21.32"/><line class="cls-2" x1="22.13" y1="43.21" x2="35.54" y2="43.21"/><line class="cls-2" x1="34.45" y1="31.18" x2="35.19" y2="34.22"/><line class="cls-2" x1="36.78" y1="31.18" x2="37.52" y2="34.22"/></svg>