<?xml version="1.0" encoding="utf-8"?>
<!-- Generator: Adobe Illustrator 23.0.4, SVG Export Plug-In . SVG Version: 6.00 Build 0)  -->
<svg version="1.1" xmlns="http://www.w3.org/2000/svg" xmlns:xlink="http://www.w3.org/1999/xlink" x="0px" y="0px"
	 viewBox="0 0 52 52" style="enable-background:new 0 0 52 52;" xml:space="preserve">
<style type="text/css">
	.st0{fill:none;stroke:#25477B;stroke-width:1.25;stroke-miterlimit:10;}
	.st1{fill:#FFFFFF;stroke:#0078D3;stroke-width:1.25;stroke-linecap:round;stroke-linejoin:round;stroke-miterlimit:10;}
	
	.compliance1 {
		stroke-dasharray: 200;
		stroke-dashoffset: 200;
		animation: compliance1 2s .25s linear forwards;
	}
	
	@keyframes compliance1 {
		from {stroke-dashoffset: 200;
		}
		to {
		stroke-dashoffset: 0;
		}
	}	
	
	.compliance2 {
		stroke-dasharray: 200;
		stroke-dashoffset: 200;
		animation: compliance2 1.5s .25s linear forwards;
	}
	
	@keyframes compliance2 {
		from {stroke-dashoffset: 200;
		}
		to {
		stroke-dashoffset: 0;
		}
	}	

	.hands {
		opacity: 0;
		animation: hands .5s 1.8s linear normal 1 forwards;
	}
	
	@keyframes hands {
    	0% {opacity:0}
		50% {opacity:.5}
		100% {opacity:1}
	}	

</style>
<g id="compliance1" class="compliance1">
	<path id="XMLID_3_" class="st0" d="M24.845,31.535v2.958h19.445v2.269c0,4.428-0.847,7.197-2.517,8.23
		c-1.687,1.044-6.188,1.574-13.376,1.574c-9.411,0-15.276-0.56-17.432-1.664c-2.132-1.091-3.213-4.088-3.213-8.908l-0.044-5.542
		l0.088-5.148c0-4.748,0.972-7.751,2.89-8.926c1.936-1.186,6.859-1.788,14.631-1.788c8.422,0,13.699,0.375,15.686,1.116
		c1.948,0.726,2.935,2.664,2.935,5.759v1.086h4.442"/>
</g>
<g id="compliance2" class="compliance2">
	<path id="XMLID_10_" class="st0" d="M24.845,33.535v-2.958H51v4.336c0,7.005-1.359,11.406-4.038,13.081
		C44.301,49.657,37.285,50.5,26.11,50.5c-10.563,0-17.453-0.997-20.48-2.962c-3.043-1.976-4.586-6.454-4.586-13.307L1,28.516
		l0.044-3.443c0-5.761,1.715-9.651,5.098-11.561c3.362-1.897,10.213-2.859,20.364-2.859c10.174,0,16.836,0.63,19.801,1.872
		c2.997,1.256,4.517,4.092,4.517,8.427v1.598h-4.442"/>
</g>
<g id="hands" class="hands">
	<g>
		<g>
			<path class="st1" d="M47.73,11.538c-0.454-0.762-1.444-1.516-2.93-2.252l0,0c-0.62-0.307-1.318-0.611-2.113-0.911
				c-0.795-0.3-1.52-0.531-2.188-0.71h0c-1.603-0.428-2.844-0.515-3.688-0.242c-0.903,0.292-1.138,0.915-1.31,1.373l-2.303,6.114
				c-0.253,0.672,0.086,1.423,0.759,1.676l1.568,0.591c0.672,0.253,1.423-0.086,1.676-0.759l-0.411,1.09
				c-0.253,0.672,0.086,1.423,0.759,1.676l1.866,0.703c0.672,0.253,1.423-0.086,1.676-0.759l0.411-1.091
				c-0.253,0.672,0.086,1.423,0.759,1.676l1.569,0.591c0.672,0.253,1.423-0.086,1.676-0.759l2.304-6.116
				C47.981,12.976,48.216,12.353,47.73,11.538z"/>
			<line class="st1" x1="41.502" y1="18.04" x2="42.91" y2="14.303"/>
			<line class="st1" x1="38.619" y1="12.654" x2="37.2" y2="16.42"/>
		</g>
		<g>
			<path class="st1" d="M3.722,11.538c0.454-0.762,1.444-1.516,2.93-2.252l0,0c0.62-0.307,1.318-0.611,2.113-0.911
				c0.795-0.3,1.52-0.531,2.188-0.71h0c1.603-0.428,2.844-0.515,3.688-0.242c0.903,0.292,1.138,0.915,1.31,1.373l2.303,6.114
				c0.253,0.672-0.086,1.423-0.759,1.676l-1.568,0.591c-0.672,0.253-1.423-0.086-1.676-0.759l0.411,1.09
				c0.253,0.672-0.086,1.423-0.759,1.676l-1.866,0.703c-0.672,0.253-1.423-0.086-1.676-0.759L9.95,18.04
				c0.253,0.672-0.086,1.423-0.759,1.676l-1.569,0.591C6.95,20.56,6.2,20.22,5.947,19.548l-2.304-6.116
				C3.471,12.976,3.236,12.353,3.722,11.538z"/>
			<line class="st1" x1="9.95" y1="18.04" x2="8.542" y2="14.303"/>
			<line class="st1" x1="12.833" y1="12.654" x2="14.252" y2="16.42"/>
		</g>
	</g>
</g>
</svg>
