<svg xmlns="http://www.w3.org/2000/svg" viewBox="0 0 52 52">
<style type="text/css">
	.Wheel {
		opacity: 1;
		animation: wheel 2.5s 0.25s ease normal 1 forwards;
		transform-origin: 50% 56.7557%;
	}
	@keyframes wheel {
		0% {transform: translateY(0px) rotate(0deg); opacity: 1;}
		100% {transform: translateY(0px) rotate(180deg); opacity: 1;}
			}		
	.computer {
		opacity: 0;
		animation: computer 1.5s 0s linear normal 1 forwards;
	}	 
	@keyframes computer {
    	0% {opacity:0}
		100% {opacity:1}
	}	
</style>	
  <g id="computer" class="computer">
    <g>
      <path d="M50.85,9.83a3.58,3.58,0,0,0-3.59-3.58H4.74A3.58,3.58,0,0,0,1.15,9.83v3.44h49.7Z" fill="#fff" stroke="#25477b" stroke-linecap="round" stroke-linejoin="round" stroke-width="1.5"/>
      <path d="M1.15,13.27v28.9a3.58,3.58,0,0,0,3.59,3.58H47.26a3.58,3.58,0,0,0,3.59-3.58V13.27Z" fill="#fff" stroke="#25477b" stroke-linecap="round" stroke-linejoin="round" stroke-width="1.5"/>
    </g>
  </g>
  <g id="dots" class="computer">
    <g>
      <circle cx="4.85" cy="9.71" r="0.91" fill="#0078d3"/>
      <circle cx="7.36" cy="9.71" r="0.91" fill="#0078d3"/>
      <circle cx="9.86" cy="9.71" r="0.91" fill="#0078d3"/>
    </g>
  </g>
  <g id="gear" class="Wheel">
    <path d="M38.27,28.65a1.56,1.56,0,0,0-1.13-1.39l-.72-.21a1.53,1.53,0,0,1-1-1c-.1-.26-.2-.52-.32-.77a1.55,1.55,0,0,1,0-1.42l.36-.66a1.55,1.55,0,0,0-.18-1.78,11.81,11.81,0,0,0-1.23-1.22A1.54,1.54,0,0,0,32.29,20l-.66.37a1.6,1.6,0,0,1-1.43,0l-.76-.32a1.55,1.55,0,0,1-1-1l-.21-.73a1.56,1.56,0,0,0-1.38-1.13q-.44,0-.87,0t-.87,0a1.56,1.56,0,0,0-1.38,1.13l-.21.73a1.55,1.55,0,0,1-1,1l-.76.32a1.6,1.6,0,0,1-1.43,0L19.71,20a1.54,1.54,0,0,0-1.77.19,11.81,11.81,0,0,0-1.23,1.22,1.55,1.55,0,0,0-.18,1.78l.36.66a1.55,1.55,0,0,1,.05,1.42c-.12.25-.22.51-.32.77a1.53,1.53,0,0,1-1,1l-.72.21a1.56,1.56,0,0,0-1.13,1.39c0,.28,0,.57,0,.86s0,.58,0,.87a1.57,1.57,0,0,0,1.13,1.39l.72.2a1.57,1.57,0,0,1,1,1c.1.26.2.51.32.76a1.57,1.57,0,0,1-.05,1.43l-.36.66a1.56,1.56,0,0,0,.18,1.78,12.88,12.88,0,0,0,1.23,1.22,1.56,1.56,0,0,0,1.77.19l.66-.37a1.57,1.57,0,0,1,1.43,0,7.19,7.19,0,0,0,.76.32,1.57,1.57,0,0,1,1,1l.21.73a1.54,1.54,0,0,0,1.38,1.12l.87,0,.87,0a1.54,1.54,0,0,0,1.38-1.12l.21-.73a1.57,1.57,0,0,1,1-1,7.19,7.19,0,0,0,.76-.32,1.57,1.57,0,0,1,1.43,0l.66.37a1.56,1.56,0,0,0,1.77-.19,12.88,12.88,0,0,0,1.23-1.22,1.56,1.56,0,0,0,.18-1.78l-.36-.66a1.57,1.57,0,0,1,0-1.43c.12-.25.22-.5.32-.76a1.57,1.57,0,0,1,1-1l.72-.2a1.57,1.57,0,0,0,1.13-1.39q0-.43,0-.87C38.3,29.22,38.29,28.93,38.27,28.65ZM26,34.91a5.4,5.4,0,1,1,5.4-5.4A5.4,5.4,0,0,1,26,34.91Z" fill="none" stroke="#0078d3" stroke-linecap="round" stroke-linejoin="round" stroke-width="1.5"/>
  </g>
</svg>