<svg id="icon-pin-point-charging-load" xmlns="http://www.w3.org/2000/svg" viewBox="0 0 52 52">
<style type="text/css">
	@keyframes dash1 {
		to {
		stroke-dashoffset: 0;
		}
	}
	.bar1 {
		stroke-dasharray: 50;
		stroke-dashoffset: 50;
		animation: dash1 0.6s linear forwards;
		animation-delay: 0s;
	}
	.bar2 {
		stroke-dasharray: 50;
		stroke-dashoffset: 50;
		animation: dash1 0.6s linear forwards;
		animation-delay: 0.15s;
	}
	.bar3 {
		stroke-dasharray: 50;
		stroke-dashoffset: 50;
		animation: dash1 0.6s linear forwards;
		animation-delay: 0.3s;
	}
	.bar4 {
		stroke-dasharray: 50;
		stroke-dashoffset: 50;
		animation: dash1 0.6s linear forwards;
		animation-delay: 0.45s;
	}
	.bar5 {
		stroke-dasharray: 50;
		stroke-dashoffset: 50;
		animation: dash1 0.6s linear forwards;
		animation-delay: 0.6s;
	}
	.line {
		stroke-dasharray: 70;
		stroke-dashoffset: 70;
		animation: dash1 0.6s linear forwards;
		animation-delay: 0.6s;
	}
	.node1 {
		opacity: 0;
		animation: fade 0.5s linear forwards;
		animation-delay: 0.3s;
	}
	.node2 {
		opacity: 0;
		animation: fade 0.5s linear forwards;
		animation-delay: 0.45s;
	}
	.node3 {
		opacity: 0;
		animation: fade 0.5s linear forwards;
		animation-delay: 0.6s;
	}
	.node4 {
		opacity: 0;
		animation: fade 0.5s linear forwards;
		animation-delay: 0.75s;
	}
	.node5 {
		opacity: 0;
		animation: fade 0.5s linear forwards;
		animation-delay: 0.9s;
	}			
	.fade-in-magnifying-glass {
		opacity: 0;
		animation: fade 0.5s linear forwards;
		animation-delay: 1s;
	}	
	@keyframes fade {
		to {
		opacity: 1;
		}
	}
</style>		
  <polyline id="line" class="line" points="3.27 32.8 13.34 39.54 23.41 31.86 33.48 13.66 33.48 13.66 43.55 23.72" fill="none" stroke="#0078d3" stroke-linecap="round" stroke-linejoin="round" stroke-width="1.5"/>
  <line id="bar5" class="bar5" x1="43.55" y1="49.22" x2="43.55" y2="23.72" fill="none" stroke="#0078d3" stroke-linecap="round" stroke-linejoin="round" stroke-width="1.5"/>
  <line id="bar4" class="bar4" x1="33.48" y1="49.22" x2="33.48" y2="13.66" fill="none" stroke="#0078d3" stroke-linecap="round" stroke-linejoin="round" stroke-width="1.5"/>
  <line id="bar3" class="bar3" x1="23.41" y1="49.22" x2="23.41" y2="31.86" fill="none" stroke="#0078d3" stroke-linecap="round" stroke-linejoin="round" stroke-width="1.5"/>
  <line id="bar2" class="bar2" x1="13.34" y1="49.22" x2="13.34" y2="39.54" fill="none" stroke="#0078d3" stroke-linecap="round" stroke-linejoin="round" stroke-width="1.5"/>
  <line id="bar1" class="bar1" x1="3.27" y1="49.22" x2="3.27" y2="32.79" fill="none" stroke="#0078d3" stroke-linecap="round" stroke-linejoin="round" stroke-width="1.5"/>
  <path id="node5" class="node5" d="M45.69,23.72a2.27,2.27,0,1,1-2.27-2.27A2.28,2.28,0,0,1,45.69,23.72Z" fill="#fff" stroke="#0078d3" stroke-linecap="round" stroke-linejoin="round" stroke-width="1.5"/>
  <path id="node4" class="node4" d="M35.75,13.66a2.27,2.27,0,1,1-2.27-2.27A2.27,2.27,0,0,1,35.75,13.66Z" fill="#fff" stroke="#0078d3" stroke-linecap="round" stroke-linejoin="round" stroke-width="1.5"/>
  <path id="node3" class="node3" d="M25.68,31.86a2.27,2.27,0,1,1-2.27-2.27A2.28,2.28,0,0,1,25.68,31.86Z" fill="#fff" stroke="#0078d3" stroke-linecap="round" stroke-linejoin="round" stroke-width="1.5"/>
  <path id="node2" class="node2" d="M15.6,39.53a2.27,2.27,0,1,1-2.26-2.27A2.26,2.26,0,0,1,15.6,39.53Z" fill="#fff" stroke="#0078d3" stroke-linecap="round" stroke-linejoin="round" stroke-width="1.5"/>
  <path id="node1" class="node1" d="M5.53,32.8a2.27,2.27,0,1,1-2.27-2.27A2.27,2.27,0,0,1,5.53,32.8Z" fill="#fff" stroke="#0078d3" stroke-linecap="round" stroke-linejoin="round" stroke-width="1.5"/>
  <path class="fade-in-magnifying-glass" d="M50.16,26.75l-7-7a11,11,0,0,0,1.7-5.61A11.36,11.36,0,1,0,33.48,25.49a11.06,11.06,0,0,0,5.61-1.7l7,7a2.84,2.84,0,0,0,4,0A2.86,2.86,0,0,0,50.16,26.75ZM26,14.13a7.53,7.53,0,1,1,7.52,7.53A7.53,7.53,0,0,1,26,14.13Z" fill="#fff" stroke="#25477b" stroke-linecap="round" stroke-linejoin="round" stroke-width="1.5"/>
</svg>