<svg id="Layer_1" data-name="Layer 1" xmlns="http://www.w3.org/2000/svg" viewBox="0 0 52 52">
  <path d="M32,7.85,28.34,6.67,25.68,3.46A6.76,6.76,0,0,0,20.47,1H16.61a1.14,1.14,0,0,0-1.13,1.13V6.61H1.81A.81.81,0,0,0,1,7.43V13.3a.82.82,0,0,0,.81.82H4.25a3.39,3.39,0,1,0,6.77,0H24a3.39,3.39,0,1,0,6.77,0h2.44A.82.82,0,0,0,34,13.3V10.68A3,3,0,0,0,32,7.85Z" fill="#fff" stroke="#0078D3" stroke-linecap="round" stroke-linejoin="round" stroke-width="1"/>
  <path d="M7.63,15.39A1.27,1.27,0,1,1,8.9,14.12,1.27,1.27,0,0,1,7.63,15.39Z" fill="#fff" stroke="#0078D3" stroke-linecap="round" stroke-linejoin="round" stroke-width="1"/>
  <path d="M17.67,6.61V3.17h2.92A4.44,4.44,0,0,1,24,4.78l1.51,1.83Z" fill="#fff" stroke="#0078D3" stroke-linecap="round" stroke-linejoin="round" stroke-width="1"/>
  <path d="M27.37,15.39a1.27,1.27,0,1,1,1.26-1.27A1.27,1.27,0,0,1,27.37,15.39Z" fill="#fff" stroke="#0078D3" stroke-linecap="round" stroke-linejoin="round" stroke-width="1"/>
  <line x1="11.35" y1="2.62" x2="11.35" y2="6.61" fill="#fff" stroke="#0078D3" stroke-linecap="round" stroke-linejoin="round" stroke-width="1"/>
  <line x1="7.21" y1="2.62" x2="7.21" y2="6.61" fill="#fff" stroke="#0078D3" stroke-linecap="round" stroke-linejoin="round" stroke-width="1"/>
  <line x1="3.07" y1="2.62" x2="3.07" y2="6.61" fill="#fff" stroke="#0078D3" stroke-linecap="round" stroke-linejoin="round" stroke-width="1"/>
  <line x1="15.48" y1="2.62" x2="1" y2="2.62" fill="#fff" stroke="#0078D3" stroke-linecap="round" stroke-linejoin="round" stroke-width="1"/>
  <path d="M49.69,26.08l-3.51-1.14-2.26-2.28a10.21,10.21,0,0,0-7.27-3.05H21.09a1,1,0,0,0-1,1V31.8a1,1,0,0,0,1,1h2.14a3.81,3.81,0,1,0,7.61,0h9.41a3.8,3.8,0,1,0,7.6,0H50a1,1,0,0,0,1-1V27.87A1.88,1.88,0,0,0,49.69,26.08Z" fill="#fff" stroke="#25477b" stroke-linecap="round" stroke-linejoin="round" stroke-width="1"/>
  <path d="M27.05,34.38a1.59,1.59,0,1,1,1.57-1.59A1.59,1.59,0,0,1,27.05,34.38Z" fill="#fff" stroke="#25477b" stroke-linecap="round" stroke-linejoin="round" stroke-width="1"/>
  <path d="M37,25.69V22.08h.24a7.54,7.54,0,0,1,5.33,2.23l1.36,1.38Z" fill="#fff" stroke="#25477b" stroke-linecap="round" stroke-linejoin="round" stroke-width="1"/>
  <path d="M44.06,34.38a1.59,1.59,0,1,1,1.58-1.59A1.58,1.58,0,0,1,44.06,34.38Z" fill="#fff" stroke="#25477b" stroke-linecap="round" stroke-linejoin="round" stroke-width="1"/>
  <line x1="33.15" y1="24.78" x2="22.52" y2="24.78" fill="#fff" stroke="#25477b" stroke-linecap="round" stroke-linejoin="round" stroke-width="1"/>
  <path d="M30.32,41.53l-4.79-1.17-4.48-4.54a2.68,2.68,0,0,0-1.9-.79H10.37a2.66,2.66,0,0,0-2.2,1.16L5.3,40.36,2,41.15a1.35,1.35,0,0,0-1,1.33v3.66a1,1,0,0,0,1,1H4.14a3.8,3.8,0,1,0,7.6,0h9.41a3.81,3.81,0,1,0,7.61,0h2.1a1,1,0,0,0,1-1V43.55A2.08,2.08,0,0,0,30.32,41.53Z" fill="#fff" stroke="#0078D3" stroke-linecap="round" stroke-linejoin="round" stroke-width="1"/>
  <path d="M7.94,48.76a1.59,1.59,0,1,1,1.57-1.59A1.59,1.59,0,0,1,7.94,48.76Z" fill="#fff" stroke="#0078D3" stroke-linecap="round" stroke-linejoin="round" stroke-width="1"/>
  <path d="M13.33,40.26H8.08L10,37.47a.81.81,0,0,1,.67-.35h2.66Z" fill="#fff" stroke="#0078D3" stroke-linecap="round" stroke-linejoin="round" stroke-width="1"/>
  <path d="M15.35,40.26V37.12H19a.8.8,0,0,1,.58.24l2.86,2.9Z" fill="#fff" stroke="#0078D3" stroke-linecap="round" stroke-linejoin="round" stroke-width="1"/>
  <path d="M25,48.76a1.59,1.59,0,1,1,1.58-1.59A1.58,1.58,0,0,1,25,48.76Z" fill="#fff" stroke="#0078D3" stroke-linecap="round" stroke-linejoin="round" stroke-width="1"/>
</svg>
