<svg id="Layer_1" data-name="Layer 1" xmlns="http://www.w3.org/2000/svg" viewBox="0 0 52 52">
  <g>
    <path d="M40.36,33.65l-.45-1.31A2,2,0,0,0,38.14,31H36.51c-1.22-3.43-2.72-7.58-3.15-8.55-.68-1.51-2.84-2.19-4-2.52,0,0-2-.76-8.61-.76s-8.61.76-8.61.76c-1.4.46-3.33,1.12-4.1,2.59-.36.69-1.88,4.95-3.13,8.48H3.29a2,2,0,0,0-1.76,1.32l-.45,1.31A.9.9,0,0,0,1.94,35H3.52c-.2.59-.33.95-.33.95A5.44,5.44,0,0,0,3,37.38v12a1.4,1.4,0,0,0,1.39,1.4H9.47a1.4,1.4,0,0,0,1.39-1.4V46.79H30.57v2.55a1.4,1.4,0,0,0,1.4,1.4h5.1a1.4,1.4,0,0,0,1.39-1.4v-12a5.43,5.43,0,0,0-.22-1.46s-.13-.36-.33-.95h1.58A.91.91,0,0,0,40.36,33.65ZM10.83,41H8.72c-1.89,0-3.78-.25-3.78-1.45V38.08c0-1.41.82-1.45,1.7-1.45a12.8,12.8,0,0,1,3.67,1.22c1.22.55,2.58,1,2.58,1.91S12.42,41,10.83,41ZM7.89,31.55a47.47,47.47,0,0,1,2.42-7.42c.19-.49.39-2,10.41-2S31,23.85,31,23.87a61.75,61.75,0,0,1,2.52,7.68S29.28,33,20.72,33,7.89,31.55,7.89,31.55ZM32.71,41H30.6c-1.59,0-2.06-.38-2.06-1.22s1.36-1.37,2.58-1.91a12.8,12.8,0,0,1,3.67-1.22c.88,0,1.69,0,1.69,1.45v1.45h0C36.49,40.73,34.6,41,32.71,41Z" fill="#fff" stroke="#25477b" stroke-linecap="round" stroke-linejoin="round" stroke-width="1"/>
    <g>
      <path d="M6.31,7.23a20.36,20.36,0,0,1,28.81,0" fill="#fff" stroke="#0078D3" stroke-linecap="round" stroke-linejoin="round" stroke-width="1"/>
      <path d="M10.45,11.36a14.53,14.53,0,0,1,20.54,0" fill="#fff" stroke="#0078D3" stroke-linecap="round" stroke-linejoin="round" stroke-width="1"/>
      <path d="M14.58,15.5a8.67,8.67,0,0,1,12.27,0" fill="#fff" stroke="#0078D3" stroke-linecap="round" stroke-linejoin="round" stroke-width="1"/>
    </g>
  </g>
</svg>
